<svg width="66" height="125" xmlns="http://www.w3.org/2000/svg" style="vector-effect:non-scaling-stroke" fill="none"><g id="svg_5"><path id="svg_1" fill="#FFCAB9" d="M60.598 38.153c-2.666-1.254-5.79.015-6.975 2.835L46.496 58.44h-1.69V16.286c0-3.086-2.366-5.588-5.284-5.588-2.918 0-5.284 2.502-5.284 5.588V8.444c0-3.086-2.365-5.589-5.284-5.589-2.918 0-5.284 2.502-5.284 5.589v7.842c0-3.086-2.365-5.588-5.284-5.588-2.918 0-5.283 2.502-5.283 5.588V29.51c0-3.086-2.366-5.589-5.284-5.589-2.918 0-5.284 2.502-5.284 5.589v40.095c0 6.377 3.785 11.816 9.109 13.947v47.277H42.67V83.551c3.956-1.585 7.062-4.997 8.396-9.262l.037.006 5.049-11.814 7.127-16.951c1.186-2.82-.015-6.123-2.68-7.377z"/><path id="svg_2" fill="#FABBA7" d="M20.723 16.286c0-1.501.563-2.861 1.474-3.866a5.318 5.318 0 0 0-1.474-1.14v5.006z"/><path id="svg_3" fill="#000" d="M12.541 81.044c-4.47-1.79-7.472-6.387-7.472-11.44v-7.069c0-3.465-5.068-3.465-5.068 0v7.07c0 6.631 3.596 12.717 9.109 15.686v46.595c0 1.48 1.134 2.68 2.534 2.68s2.534-1.2 2.534-2.68V83.55c0-1.113-.652-2.112-1.637-2.506z"/><path id="svg_4" fill="#000" d="M65.749 40.292c-.75-2.061-2.213-3.69-4.12-4.588-3.894-1.83-8.625.16-10.332 4.222l-3.957 9.688V16.286c.108-5.66-5.619-9.82-10.567-7.74-.602-11.12-15.212-11.11-15.636 0-4.95-2.079-10.675 2.08-10.568 7.74v5.483C5.623 19.69-.108 23.848.002 29.509v19.625c0 3.466 5.068 3.466 5.068 0V29.51c.141-3.856 5.361-3.85 5.5 0v18.64c0 3.465 5.068 3.465 5.068 0V16.286c.135-3.846 5.36-3.857 5.499 0V42.35c0 3.466 5.068 3.466 5.068 0V8.444c0-1.604 1.233-2.908 2.75-2.908 1.516 0 2.75 1.304 2.75 2.908V42.35c0 3.466 5.068 3.466 5.068 0V16.286c0-1.603 1.234-2.908 2.75-2.908s2.75 1.305 2.75 2.908v39.54c-7.48.706-13.333 7.358-13.333 15.316 0 3.466 5.068 3.466 5.068 0 0-7.514 6.433-10.287 12.49-10.021 1.01 0 1.925-.636 2.326-1.618l7.116-17.425c.824-1.552 2.034-2.044 3.63-1.476 1.467.872 1.932 2.152 1.395 3.839a13859.858 13859.858 0 0 1-12.251 28.965c-1.169 3.51-3.763 6.366-6.94 7.638-.985.395-1.637 1.393-1.637 2.507v47.277c0 1.48 1.134 2.68 2.534 2.68s2.534-1.2 2.534-2.68V85.287c3.767-2.048 6.782-5.666 8.251-9.99 4.08-9.544 8.116-19.107 12.14-28.678a8.654 8.654 0 0 0 .153-6.327z"/></g></svg>