<svg width="320" height="240" xmlns="http://www.w3.org/2000/svg" xml:space="preserve"><g id="svg_1" clip-rule="evenodd" fill-rule="evenodd"><path id="svg_2" d="M16.44 11.55H6.14V5.12h10.3c1.37 0 2.47.6 2.47 1.3v3.79c0 .75-1.1 1.34-2.47 1.34zM0 2.03v24.3h6.14V14.64h14.15c2.58 0 4.76-1.06 4.76-2.39V4.42c0-1.33-2.18-2.39-4.76-2.39H0z" class="st0"/><path id="svg_3" d="M37.66 26.02V12.11h3.91c1.45 0 2.55.54 2.55 1.23h6.14v-1.96c0-1.32-2.16-2.37-4.77-2.37H31.51v17.01h6.15z" class="st0"/><path id="svg_4" d="M66.8 13.39v1.32c0 .71-1.1 1.28-2.47 1.28h-3.99v-2.6c0-.71 1.1-1.28 2.48-1.28h1.51c1.37 0 2.47.57 2.47 1.28zm6.15 3.29v-5.3c0-1.32-2.16-2.37-4.77-2.37h-9.21c-2.61 0-4.77 1.05-4.77 2.37v12.26c0 1.32 2.16 2.41 4.77 2.41h11.17l1.44-3.1h-8.76c-1.38 0-2.48-.56-2.48-1.27v-2.59h7.84c2.61 0 4.77-1.09 4.77-2.41z" class="st0"/><path id="svg_5" d="M98.16 12.11v-3.1H84.18c-2.61 0-4.77 1.09-4.77 2.4v5.27c0 1.35 2.16 2.41 4.77 2.41h5.29c1.44 0 2.54.57 2.54 1.27v1.32c0 .71-1.1 1.27-2.54 1.27H79.41v3.1h13.98c2.61 0 4.77-1.06 4.77-2.41V18.4c0-1.32-2.16-2.41-4.77-2.41h-5.36c-1.38 0-2.48-.57-2.48-1.28v-1.32c0-.71 1.1-1.28 2.48-1.28h10.13z" class="st0"/><path id="svg_6" d="M103.36 4.34V1.1l6.01-.76v3.24l-6.01.76zm.13 21.83V9.71l6.01-.76v17.22h-6.01z" class="st0"/><path id="svg_7" d="M129.83 21.7c0 .7-1.17 1.25-2.55 1.25h-1.44c-1.37 0-2.47-.55-2.47-1.25v-8.34c0-.7 1.1-1.25 2.47-1.25h1.44c1.38 0 2.55.55 2.55 1.25v8.34zm1.39-12.69H122c-2.69 0-4.78 1.09-4.78 2.4v12.23c0 1.32 2.09 2.41 4.78 2.41h9.22c2.64 0 4.75-1.09 4.75-2.41V11.41c0-1.31-2.11-2.4-4.75-2.4z" class="st0"/><path id="svg_8" d="M147.32 26.02V12.11h3.98c1.31 0 2.48.51 2.48 1.23v12.68h6.14V11.38c0-1.32-2.22-2.37-4.77-2.37h-13.98v17.01h6.15z" class="st0"/><path id="svg_9" d="M175 22.95c-1.37 0-2.47-.56-2.47-1.27v-1.32c0-.7 1.1-1.27 2.47-1.27h3.99v3.86H175zm5.37-13.94h-9.8l-1.44 3.1h7.31c1.38 0 2.55.57 2.55 1.28v1.32c0 .71-1.17 1.28-2.55 1.28h-5.35c-2.62 0-4.71 1.06-4.71 2.41v5.24c0 1.32 2.09 2.41 4.71 2.41h14.04V11.38c0-1.32-2.11-2.37-4.76-2.37zm-8.17-1.44 5.55-2.88h6.52l-5.35 2.88h-6.72z" class="st0"/><path id="svg_10" d="M201.67 29.96v1.99c0 1.29 1.99 2.37 4.76 2.37h10.47c2.58 0 4.78-1.08 4.78-2.37V8.78l-6.14.72v20.46c0 .69-1.4 1.27-2.96 1.27h-1.72c-1.73 0-3.04-.58-3.04-1.27h-6.15zm13.87-26.02V.72l6.14-.72v3.22l-6.14.72z" class="st0"/><path id="svg_11" d="M239.49 9.03v13.92h-3.99c-1.3 0-2.47-.58-2.47-1.23V9.03h-6.15v14.61c0 1.35 2.1 2.41 4.78 2.41h13.97V9.03h-6.14z" class="st0"/><path id="svg_12" d="M264.7 21.72c0 .66-1.16 1.25-2.45 1.25h-1.57c-1.29 0-2.44-.59-2.44-1.25v-8.36c0-.7 1.15-1.25 2.44-1.25h4.02v9.61zm1.38-12.71h-9.23c-2.64 0-4.76 1.08-4.76 2.41v12.25c0 1.33 2.12 2.39 4.76 2.39h7.85v3.98c0 .69-1.16 1.19-2.45 1.19h-1.57c-1.29 0-2.44-.5-2.44-1.19h-6.15v1.94c0 1.27 2.12 2.34 4.76 2.34h9.23c2.65 0 4.76-1.07 4.76-2.34V9.01h-4.76z" class="st0"/><path id="svg_13" d="M284.66 22.95c-1.37 0-2.47-.56-2.47-1.27v-1.32c0-.7 1.1-1.27 2.47-1.27h3.99v3.86h-3.99zm5.36-13.94h-9.79l-1.38 3.1h7.25c1.45 0 2.55.57 2.55 1.28v1.32c0 .71-1.1 1.28-2.55 1.28h-5.29c-2.61 0-4.77 1.09-4.77 2.41v5.24c0 1.35 2.16 2.41 4.77 2.41h13.98V11.41c0-1.31-2.16-2.4-4.77-2.4z" class="st0"/><path id="svg_14" d="M307.4 26.02V12.11h3.91c1.45 0 2.55.54 2.55 1.23H320v-1.96c0-1.32-2.16-2.37-4.77-2.37h-13.98v17.01h6.15z" class="st0"/><path id="svg_15" d="M19.54 50.42v13.16h-3.92c-1.37 0-2.54-.58-2.54-1.23V49.66l-6.15.76v13.85c0 1.35 2.29 2.4 4.77 2.4h7.84v3.99c0 .7-1.03 1.2-2.48 1.2h-1.44c-1.37 0-2.54-.5-2.54-1.2H6.93v1.89c0 1.35 2.29 2.4 4.77 2.4h9.28c2.61 0 4.7-1.05 4.7-2.4V49.66l-6.14.76z" class="st0"/><path id="svg_16" d="M58.61 54.02v1.32c0 .71-1.1 1.28-2.47 1.28h-3.99v-2.6c0-.72 1.1-1.29 2.48-1.29h1.51c1.37 0 2.47.57 2.47 1.29zm6.15 3.29v-5.3c0-1.32-2.16-2.37-4.78-2.37h-9.2c-2.62 0-4.77 1.05-4.77 2.37v12.26c0 1.32 2.15 2.4 4.77 2.4h11.17l1.43-3.09h-8.75c-1.38 0-2.48-.57-2.48-1.28v-2.58h7.83c2.62 0 4.78-1.09 4.78-2.41z" class="st0"/><path id="svg_17" class="st0" d="M71.22 66.57v-24.6l6.14-.71v25.31z"/><path id="svg_18" d="M95.16 54.02v1.32c0 .71-1.09 1.28-2.47 1.28h-3.98v-2.6c0-.72 1.09-1.29 2.47-1.29h1.51c1.38 0 2.47.57 2.47 1.29zm6.15 3.29v-5.3c0-1.32-2.16-2.37-4.77-2.37h-9.21c-2.61 0-4.77 1.05-4.77 2.37v12.26c0 1.32 2.16 2.4 4.77 2.4H98.5l1.44-3.09h-8.76c-1.38 0-2.47-.57-2.47-1.28v-2.58h7.83c2.61 0 4.77-1.09 4.77-2.41z" class="st0"/><path id="svg_19" d="M120.37 62.34c0 .67-1.15 1.26-2.44 1.26h-1.57c-1.29 0-2.45-.59-2.45-1.26v-8.35c0-.7 1.16-1.26 2.45-1.26h4.01v9.61zm1.39-12.7h-9.23c-2.65 0-4.76 1.07-4.76 2.41V64.3c0 1.33 2.11 2.39 4.76 2.39h7.84v3.97c0 .7-1.15 1.2-2.44 1.2h-1.57c-1.29 0-2.45-.5-2.45-1.2h-6.14v1.95c0 1.27 2.11 2.34 4.76 2.34h9.23c2.64 0 4.76-1.07 4.76-2.34V49.64h-4.76z" class="st0"/><path id="svg_20" d="m131.75 47.16 5.72-3.02h6.67l-5.72 3.02h-6.67zm0 19.48V49.5h6.67v17.14h-6.67z" class="st0"/><path id="svg_21" d="M155.51 49.64v3.2h-6.15v-3.2h6.15zm0 13.85v3.21h-6.15v-3.21h6.15z" class="st0"/><path id="svg_22" d="M187.18 53.98v8.35c0 .73-1.17 1.25-2.48 1.25h-3.98V52.73h3.98c1.31 0 2.48.59 2.48 1.25zm-6.46 21.26v-8.57h7.9c2.48 0 4.7-1.05 4.7-2.4V52.04c0-1.35-2.22-2.4-4.7-2.4h-14.05v24.88l6.15.72z" class="st0"/><path id="svg_23" d="M199.78 44.97v-3.24l6.02-.76v3.24l-6.02.76zm.13 21.83V50.34l6.02-.76V66.8h-6.02z" class="st0"/><path id="svg_24" d="M223.73 54.02v1.32c0 .71-1.1 1.28-2.47 1.28h-3.99v-2.6c0-.72 1.1-1.29 2.48-1.29h1.51c1.37 0 2.47.57 2.47 1.29zm6.15 3.29v-5.3c0-1.32-2.16-2.37-4.78-2.37h-9.2c-2.62 0-4.77 1.05-4.77 2.37v12.26c0 1.32 2.15 2.4 4.77 2.4h11.17l1.43-3.09h-8.75c-1.38 0-2.48-.57-2.48-1.28v-2.58h7.83c2.62 0 4.78-1.09 4.78-2.41z" class="st0"/><path id="svg_25" d="M239.96 62.33v-8.35c0-.73 1.17-1.25 2.47-1.25h3.99v10.85h-3.99c-1.3 0-2.47-.59-2.47-1.25zm6.46-20.51v7.82h-7.83c-2.68 0-4.77 1.05-4.77 2.4v12.23c0 1.35 2.09 2.4 4.77 2.4h13.98v-25.6l-6.15.75z" class="st0"/><path id="svg_26" d="M265.17 66.65V52.73h3.92c1.44 0 2.54.55 2.54 1.24h6.14v-1.96c0-1.32-2.15-2.37-4.77-2.37h-13.97v17.01h6.14z" class="st0"/><path id="svg_27" d="M287.81 63.58c-1.37 0-2.47-.57-2.47-1.28v-1.31c0-.71 1.1-1.27 2.47-1.27h3.99v3.86h-3.99zm5.36-13.94h-9.79L282 52.73h7.25c1.45 0 2.55.57 2.55 1.29v1.32c0 .71-1.1 1.28-2.55 1.28h-5.29c-2.61 0-4.77 1.09-4.77 2.4v5.25c0 1.35 2.16 2.4 4.77 2.4h13.98V52.04c0-1.32-2.16-2.4-4.77-2.4z" class="st0"/><path id="svg_28" class="st0" d="M310.55 63.66v6.15l-6.15-2.92v-3.23z"/><path id="svg_29" d="M35.29 95.25v8.34c0 .73-1.17 1.25-2.47 1.25h-3.99V94h3.99c1.3 0 2.47.59 2.47 1.25zm-6.46 21.26v-8.57h7.9c2.49 0 4.71-1.06 4.71-2.41V93.3c0-1.35-2.22-2.4-4.71-2.4H22.69v24.89l6.14.72z" class="st0"/><path id="svg_30" d="M56.52 104.84c-1.38 0-2.48-.57-2.48-1.27v-1.32c0-.7 1.1-1.27 2.48-1.27h3.98v3.86h-3.98zm5.36-13.94h-9.8L50.71 94h7.25c1.44 0 2.54.57 2.54 1.28v1.32c0 .71-1.1 1.28-2.54 1.28h-5.29c-2.62 0-4.77 1.09-4.77 2.41v5.24c0 1.35 2.15 2.41 4.77 2.41h13.98V93.3c0-1.31-2.16-2.4-4.77-2.4z" class="st0"/><path id="svg_31" d="M85.71 95.25v8.34c0 .73-1.17 1.25-2.47 1.25h-3.99V94h3.99c1.3 0 2.47.59 2.47 1.25zm-6.46 21.26v-8.57h7.9c2.48 0 4.71-1.06 4.71-2.41V93.3c0-1.35-2.23-2.4-4.71-2.4H73.11v24.89l6.14.72z" class="st0"/><path id="svg_32" d="M110.92 95.28v1.32c0 .71-1.1 1.28-2.47 1.28h-3.99v-2.6c0-.71 1.1-1.28 2.47-1.28h1.52c1.37 0 2.47.57 2.47 1.28zm6.15 3.29v-5.3c0-1.32-2.16-2.37-4.78-2.37h-9.2c-2.62 0-4.77 1.05-4.77 2.37v12.26c0 1.32 2.15 2.41 4.77 2.41h11.16l1.44-3.1h-8.76c-1.37 0-2.47-.57-2.47-1.27v-2.59h7.83c2.62 0 4.78-1.09 4.78-2.41z" class="st0"/><path id="svg_33" class="st0" d="M123.53 107.84V83.23l6.14-.71v25.32z"/><path id="svg_34" d="M162.6 103.59c0 .7-1.17 1.25-2.54 1.25h-1.45c-1.37 0-2.47-.55-2.47-1.25v-8.34c0-.7 1.1-1.25 2.47-1.25h1.45c1.37 0 2.54.55 2.54 1.25v8.34zm1.39-12.69h-9.22c-2.68 0-4.77 1.09-4.77 2.4v12.23c0 1.32 2.09 2.41 4.77 2.41h9.22c2.64 0 4.75-1.09 4.75-2.41V93.3c0-1.31-2.11-2.4-4.75-2.4z" class="st0"/><path id="svg_35" class="st0" d="M193.95 107.91V94h6.61l1.49-3.1h-8.1v-8.54l-6.14.72v24.83z"/><path id="svg_36" d="M205.46 86.23v-3.24l6.01-.76v3.24l-6.01.76zm.12 21.83V91.6l6.02-.76v17.22h-6.02z" class="st0"/><path id="svg_37" d="M205.46 111.85v1.99c0 1.29 1.98 2.37 4.75 2.37h10.47c2.59 0 4.79-1.08 4.79-2.37V90.67l-6.15.72v20.46c0 .69-1.4 1.27-2.96 1.27h-1.72c-1.73 0-3.04-.58-3.04-1.27h-6.14zm13.86-26.02v-3.22l6.15-.72v3.22l-6.15.72z" class="st0"/><path id="svg_38" d="M243.27 95.28v1.32c0 .71-1.1 1.28-2.47 1.28h-3.99v-2.6c0-.71 1.1-1.28 2.47-1.28h1.52c1.37 0 2.47.57 2.47 1.28zm6.14 3.29v-5.3c0-1.32-2.15-2.37-4.77-2.37h-9.2c-2.62 0-4.78 1.05-4.78 2.37v12.26c0 1.32 2.16 2.41 4.78 2.41h11.16l1.44-3.1h-8.76c-1.37 0-2.47-.57-2.47-1.27v-2.59h7.83c2.62 0 4.77-1.09 4.77-2.41z" class="st0"/><path id="svg_39" d="M260.76 107.91V94h3.92c1.44 0 2.54.54 2.54 1.23h6.14v-1.96c0-1.32-2.15-2.37-4.77-2.37h-13.98v17.01h6.15z" class="st0"/><path id="svg_40" d="M283.4 104.84c-1.37 0-2.47-.57-2.47-1.27v-1.32c0-.7 1.1-1.27 2.47-1.27h3.99v3.86h-3.99zm5.36-13.94h-9.8l-1.37 3.1h7.25c1.45 0 2.55.57 2.55 1.28v1.32c0 .71-1.1 1.28-2.55 1.28h-5.29c-2.61 0-4.77 1.09-4.77 2.41v5.24c0 1.35 2.16 2.41 4.77 2.41h13.98V93.3c0-1.31-2.16-2.4-4.77-2.4z" class="st0"/><path id="svg_41" d="M34.46 146.1c-1.38 0-2.48-.56-2.48-1.27v-1.31c0-.71 1.1-1.28 2.48-1.28h3.98v3.86h-3.98zm5.36-13.94h-9.8l-1.37 3.1h7.25c1.44 0 2.54.57 2.54 1.28v1.32c0 .71-1.1 1.29-2.54 1.29h-5.29c-2.61 0-4.77 1.08-4.77 2.4v5.25c0 1.35 2.16 2.4 4.77 2.4h13.98v-14.63c0-1.32-2.16-2.41-4.77-2.41z" class="st0"/><path id="svg_42" d="M55.93 149.18v-13.92h3.99c1.3 0 2.47.51 2.47 1.23v12.69h6.15v-14.65c0-1.31-2.22-2.37-4.77-2.37H49.79v17.02h6.14z" class="st0"/><path id="svg_43" class="st0" d="M81.14 149.18v-13.92h6.6l1.5-3.1h-8.1v-8.53l-6.14.72v24.83z"/><path id="svg_44" d="M105.25 136.54v1.32c0 .71-1.1 1.29-2.48 1.29h-3.98v-2.61c0-.71 1.1-1.28 2.47-1.28h1.51c1.38 0 2.48.57 2.48 1.28zm6.14 3.3v-5.31c0-1.31-2.15-2.37-4.77-2.37h-9.2c-2.62 0-4.78 1.06-4.78 2.37v12.27c0 1.31 2.16 2.4 4.78 2.4h11.16l1.44-3.1h-8.76c-1.37 0-2.47-.56-2.47-1.27v-2.59h7.83c2.62 0 4.77-1.09 4.77-2.4z" class="st0"/><path id="svg_45" d="M136.6 135.26v-3.1h-13.97c-2.62 0-4.78 1.09-4.78 2.41v5.27c0 1.35 2.16 2.4 4.78 2.4h5.29c1.44 0 2.54.57 2.54 1.28v1.31c0 .71-1.1 1.27-2.54 1.27h-10.07v3.1h13.98c2.62 0 4.77-1.05 4.77-2.4v-5.25c0-1.32-2.15-2.4-4.77-2.4h-5.36c-1.37 0-2.47-.58-2.47-1.29v-1.32c0-.71 1.1-1.28 2.47-1.28h10.13z" class="st0"/><path id="svg_46" d="M163.07 144.85v-8.34c0-.73 1.17-1.25 2.48-1.25h3.98v10.84h-3.98c-1.31 0-2.48-.59-2.48-1.25zm6.46-20.5v7.81h-7.83c-2.68 0-4.77 1.06-4.77 2.41v12.23c0 1.35 2.09 2.4 4.77 2.4h13.98v-25.61l-6.15.76z" class="st0"/><path id="svg_47" d="M194.74 136.54v1.32c0 .71-1.1 1.29-2.47 1.29h-3.99v-2.61c0-.71 1.1-1.28 2.48-1.28h1.51c1.37 0 2.47.57 2.47 1.28zm6.15 3.3v-5.31c0-1.31-2.16-2.37-4.78-2.37h-9.2c-2.62 0-4.77 1.06-4.77 2.37v12.27c0 1.31 2.15 2.4 4.77 2.4h11.17l1.43-3.1h-8.75c-1.38 0-2.48-.56-2.48-1.27v-2.59h7.83c2.62 0 4.78-1.09 4.78-2.4z" class="st0"/><path id="svg_48" d="M229.83 135.26h3.99v10.84h-3.99c-1.31 0-2.47-.59-2.47-1.25v-8.31c0-.76 1.16-1.28 2.47-1.28zm10.13 21.75v-24.85h-13.98c-2.68 0-4.77 1.06-4.77 2.41v12.23c0 1.35 2.09 2.4 4.77 2.4h7.84v8.57l6.14-.76z" class="st0"/><path id="svg_49" d="M259.03 132.19v13.91h-3.99c-1.31 0-2.47-.58-2.47-1.23v-12.68h-6.15v14.61c0 1.35 2.09 2.4 4.77 2.4h13.98v-17.01h-6.14z" class="st0"/><path id="svg_50" d="M284.23 136.54v1.32c0 .71-1.1 1.29-2.47 1.29h-3.99v-2.61c0-.71 1.1-1.28 2.48-1.28h1.51c1.37 0 2.47.57 2.47 1.28zm6.15 3.3v-5.31c0-1.31-2.16-2.37-4.77-2.37h-9.21c-2.61 0-4.77 1.06-4.77 2.37v12.27c0 1.31 2.16 2.4 4.77 2.4h11.17l1.44-3.1h-8.76c-1.38 0-2.48-.56-2.48-1.27v-2.59h7.84c2.61 0 4.77-1.09 4.77-2.4z" class="st0"/><path id="svg_51" d="M51.05 177.77v8.35c0 .73-1.17 1.25-2.48 1.25h-3.98v-10.85h3.98c1.31 0 2.48.59 2.48 1.25zm-6.46 21.26v-8.57h7.9c2.48 0 4.7-1.05 4.7-2.4v-12.23c0-1.35-2.22-2.41-4.7-2.41H38.44v24.89l6.15.72z" class="st0"/><path id="svg_52" d="M72.27 187.37c-1.37 0-2.47-.57-2.47-1.28v-1.31c0-.71 1.1-1.28 2.47-1.28h3.99v3.87h-3.99zm5.36-13.95h-9.79l-1.38 3.1h7.26c1.44 0 2.54.57 2.54 1.28v1.32c0 .72-1.1 1.29-2.54 1.29h-5.29c-2.62 0-4.78 1.08-4.78 2.4v5.25c0 1.35 2.16 2.4 4.78 2.4H82.4v-14.63c0-1.32-2.15-2.41-4.77-2.41z" class="st0"/><path id="svg_53" d="M107.61 176.52v-3.1H93.63c-2.61 0-4.77 1.09-4.77 2.41v5.27c0 1.35 2.16 2.4 4.77 2.4h5.29c1.45 0 2.55.57 2.55 1.28v1.31c0 .71-1.1 1.28-2.55 1.28H88.86v3.09h13.98c2.62 0 4.77-1.05 4.77-2.4v-5.25c0-1.32-2.15-2.4-4.77-2.4h-5.36c-1.37 0-2.47-.57-2.47-1.29v-1.32c0-.71 1.1-1.28 2.47-1.28h10.13z" class="st0"/><path id="svg_54" d="M125.42 177.8v1.32c0 .72-1.1 1.29-2.48 1.29h-3.98v-2.61c0-.71 1.1-1.28 2.47-1.28h1.51c1.38 0 2.48.57 2.48 1.28zm6.14 3.3v-5.3c0-1.32-2.16-2.38-4.77-2.38h-9.21c-2.61 0-4.77 1.06-4.77 2.38v12.26c0 1.31 2.16 2.4 4.77 2.4h11.17l1.44-3.09h-8.76c-1.37 0-2.47-.57-2.47-1.28v-2.59h7.83c2.61 0 4.77-1.08 4.77-2.4z" class="st0"/><path id="svg_55" d="M142.9 190.44v-13.92h3.99c1.31 0 2.47.51 2.47 1.23v12.69h6.15V175.8c0-1.32-2.22-2.38-4.77-2.38h-13.98v17.02h6.14z" class="st0"/><path id="svg_56" class="st0" d="M175.83 190.36v-24.6l6.15-.71v25.31z"/><path id="svg_57" d="M201.04 186.12c0 .69-1.16 1.25-2.54 1.25h-1.44c-1.38 0-2.48-.56-2.48-1.25v-8.35c0-.69 1.1-1.25 2.48-1.25h1.44c1.38 0 2.54.56 2.54 1.25v8.35zm1.39-12.7h-9.22c-2.68 0-4.77 1.09-4.77 2.41v12.23c0 1.31 2.09 2.4 4.77 2.4h9.22c2.64 0 4.76-1.09 4.76-2.4v-12.23c0-1.32-2.12-2.41-4.76-2.41z" class="st0"/><path id="svg_58" d="M229.88 176.52v-3.1H215.9c-2.62 0-4.77 1.09-4.77 2.41v5.27c0 1.35 2.15 2.4 4.77 2.4h5.29c1.44 0 2.54.57 2.54 1.28v1.31c0 .71-1.1 1.28-2.54 1.28h-10.06v3.09h13.97c2.62 0 4.78-1.05 4.78-2.4v-5.25c0-1.32-2.16-2.4-4.78-2.4h-5.35c-1.38 0-2.48-.57-2.48-1.29v-1.32c0-.71 1.1-1.28 2.48-1.28h10.13z" class="st0"/><path id="svg_59" d="M276.51 168.8c0-1.29-2.13-2.36-4.74-2.36h-15.55c-2.64 0-4.76 1.07-4.76 2.36v4.79l6.15.78v-3.53c0-.71.96-1.27 2.26-1.34v.04h8.03c1.3 0 2.47.59 2.47 1.3v3.79c0 .74-1.17 1.33-2.47 1.33h-4.87l-1.44 3.1h6.31c1.3 0 2.47.54 2.47 1.21v5.91c0 .67-1.17 1.2-2.47 1.2h-7.82c-1.38 0-2.47-.53-2.47-1.2v-1.75l-6.15-.74v4.39c0 1.33 2.12 2.4 4.76 2.4h15.55c2.61 0 4.74-1.07 4.74-2.4V168.8z" class="st0"/><path id="svg_60" d="M75.47 217.78v-3.09H61.49c-2.61 0-4.77 1.08-4.77 2.4v5.27c0 1.35 2.16 2.4 4.77 2.4h5.29c1.45 0 2.55.57 2.55 1.28v1.31c0 .71-1.1 1.28-2.55 1.28H56.72v3.09H70.7c2.61 0 4.77-1.05 4.77-2.4v-5.25c0-1.31-2.16-2.4-4.77-2.4h-5.36c-1.37 0-2.47-.57-2.47-1.28v-1.32c0-.72 1.1-1.29 2.47-1.29h10.13z" class="st0"/><path id="svg_61" d="M93.27 219.07v1.32c0 .71-1.1 1.28-2.47 1.28h-3.99v-2.6c0-.72 1.1-1.29 2.48-1.29h1.51c1.37 0 2.47.57 2.47 1.29zm6.15 3.29v-5.3c0-1.32-2.16-2.37-4.77-2.37h-9.21c-2.61 0-4.77 1.05-4.77 2.37v12.26c0 1.32 2.16 2.4 4.77 2.4h11.17l1.44-3.09h-8.76c-1.38 0-2.48-.57-2.48-1.28v-2.59h7.84c2.61 0 4.77-1.08 4.77-2.4z" class="st0"/><path id="svg_62" d="M118.48 227.39c0 .66-1.15 1.26-2.44 1.26h-1.57c-1.29 0-2.45-.6-2.45-1.26v-8.36c0-.69 1.16-1.25 2.45-1.25h4.01v9.61zm1.39-12.7h-9.23c-2.65 0-4.76 1.07-4.76 2.41v12.24c0 1.34 2.11 2.4 4.76 2.4h7.84v3.97c0 .7-1.15 1.2-2.44 1.2h-1.57c-1.29 0-2.45-.5-2.45-1.2h-6.14v1.94c0 1.28 2.11 2.35 4.76 2.35h9.23c2.64 0 4.76-1.07 4.76-2.35v-22.96h-4.76z" class="st0"/><path id="svg_63" d="M142.43 214.71v13.92h-3.98c-1.31 0-2.48-.58-2.48-1.24v-12.68h-6.14v14.61c0 1.35 2.09 2.4 4.77 2.4h13.98v-17.01h-6.15z" class="st0"/><path id="svg_64" d="M162.44 231.7v-13.92h3.99c1.3 0 2.47.52 2.47 1.24v12.68h6.15v-14.64c0-1.32-2.23-2.37-4.78-2.37H156.3v17.01h6.14z" class="st0"/><path id="svg_65" d="M186.39 227.38v-8.35c0-.73 1.17-1.25 2.47-1.25h3.99v10.85h-3.99c-1.3 0-2.47-.59-2.47-1.25zm6.46-20.51v7.82h-7.83c-2.68 0-4.77 1.05-4.77 2.4v12.23c0 1.35 2.09 2.4 4.77 2.4H199v-25.6l-6.15.75z" class="st0"/><path id="svg_66" d="M219.32 227.38c0 .69-1.17 1.25-2.54 1.25h-1.45c-1.37 0-2.47-.56-2.47-1.25v-8.35c0-.69 1.1-1.25 2.47-1.25h1.45c1.37 0 2.54.56 2.54 1.25v8.35zm1.39-12.69h-9.22c-2.68 0-4.77 1.08-4.77 2.4v12.23c0 1.32 2.09 2.4 4.77 2.4h9.22c2.64 0 4.76-1.08 4.76-2.4v-12.23c0-1.32-2.12-2.4-4.76-2.4z" class="st0"/><path id="svg_67" d="M248.15 217.78v-3.09h-13.97c-2.62 0-4.78 1.08-4.78 2.4v5.27c0 1.35 2.16 2.4 4.78 2.4h5.29c1.44 0 2.54.57 2.54 1.28v1.31c0 .71-1.1 1.28-2.54 1.28H229.4v3.09h13.98c2.62 0 4.77-1.05 4.77-2.4v-5.25c0-1.31-2.15-2.4-4.77-2.4h-5.36c-1.37 0-2.47-.57-2.47-1.28v-1.32c0-.72 1.1-1.29 2.47-1.29h10.13z" class="st0"/><path id="svg_68" class="st0" d="M254.61 228.63h6.15v3.09h-6.15z"/></g></svg>