<svg width="54" height="125" xmlns="http://www.w3.org/2000/svg" fill="none"><g id="svg_8"><path id="svg_1" fill="#FFCAB9" d="M41.67 127.641V58.215c5.323-2.105 9.109-7.477 9.109-13.774V19.394H1.536V44.44c0 6.297 3.785 11.669 9.108 13.774v69.426H41.67z"/><path id="svg_2" fill="#FABBA7" d="M7.82 25.154c-2.919 0-5.285-2.47-5.285-5.52v-5.262c0-3.048 2.366-5.52 5.284-5.52 2.919 0 5.284 2.472 5.284 5.52v5.263c0 3.048-2.365 5.52-5.284 5.52z"/><path id="svg_3" fill="#FABBA7" d="M18.387 25.154c-2.918 0-5.284-2.47-5.284-5.519V8.372c0-3.048 2.366-5.519 5.284-5.519 2.919 0 5.284 2.471 5.284 5.52v11.262c0 3.048-2.365 5.52-5.284 5.52z"/><path id="svg_4" fill="#FABBA7" d="M28.955 25.154c-2.918 0-5.284-2.47-5.284-5.519V8.372c0-3.048 2.366-5.519 5.284-5.519 2.918 0 5.284 2.471 5.284 5.52v11.262c0 3.048-2.366 5.52-5.284 5.52z"/><path id="svg_5" fill="#FABBA7" d="M39.523 25.154c-2.919 0-5.284-2.47-5.284-5.519V8.372c0-3.048 2.365-5.519 5.284-5.519 2.918 0 5.284 2.471 5.284 5.52v11.262c0 3.048-2.366 5.52-5.284 5.52z"/><path id="svg_6" fill="#FFCAB9" d="M51.78 44.441V19.635c0-3.048-2.366-5.52-5.285-5.52h-17.54c-2.918 0-5.284 2.472-5.284 5.52 0 3.048 2.366 5.52 5.284 5.52h12.257v8.26c-4.895.947-9.738 5.771-9.738 12.545"/><path id="svg_7" fill="#000" d="M47.34 11.517V8.372c.023-7.081-8.195-10.791-13.101-6.012-2.853-2.85-7.716-2.85-10.568 0C19.243-1.961 11.843.612 10.718 6.79 5.757 4.6-.112 8.714.002 14.372v30.069c0 6.55 3.595 12.56 9.108 15.493l.897 66.627c0 1.463 1.134 2.647 2.534 2.647s2.534-1.184 2.534-2.647l-.897-68.346c0-1.1-.651-2.086-1.637-2.476-4.469-1.767-7.471-6.308-7.471-11.298V27.278c2.657 1.112 6.033.383 8.033-1.63 2.853 2.85 7.716 2.85 10.568 0 1.392 1.336 3.248 2.153 5.284 2.153h9.722v3.608c-5.03 1.92-9.738 7.203-9.738 14.551 0 1.462 1.135 2.647 2.535 2.647 1.4 0 2.534-1.185 2.534-2.647 0-5.494 3.949-9.223 7.665-9.942 1.201-.232 2.073-1.326 2.073-2.603v-8.261c0-1.462-1.135-2.647-2.534-2.647H28.955c-1.516 0-2.75-1.289-2.75-2.872 0-1.584 1.233-2.872 2.75-2.872h17.54c1.517 0 2.75 1.288 2.75 2.872V44.44c0 4.99-3.003 9.53-7.471 11.298-.986.39-1.637 1.375-1.637 2.476l.897 68.346c0 1.463 1.134 2.647 2.534 2.647s2.534-1.184 2.534-2.647l-.897-66.627C50.718 57 54.313 50.99 54.313 44.44V19.635c0-4.205-3.058-7.676-6.973-8.118zM39.522 5.5c1.517 0 2.75 1.288 2.75 2.872v3.097h-5.499V8.372c0-1.583 1.233-2.872 2.75-2.872zM7.82 22.507c-1.516 0-2.75-1.288-2.75-2.872v-5.263a2.751 2.751 0 0 1 5.5 0v5.263c0 1.584-1.233 2.872-2.75 2.872zm10.568 0c-1.516 0-2.75-1.288-2.75-2.872V8.372a2.752 2.752 0 0 1 5.5 0v11.263c0 1.584-1.233 2.872-2.75 2.872zm7.818-10.515v-3.62a2.751 2.751 0 0 1 5.5 0v3.097h-2.75c-.967 0-1.894.185-2.75.523z"/></g></svg>