<svg width="997" height="453" xmlns="http://www.w3.org/2000/svg" xml:space="preserve"><g id="svg_54"><g id="svg_1" fill="red"><path id="svg_2" d="M997 69.56v10.78c-5.97.48-10.67 5.4-10.67 11.48 0 .73.06 1.43.22 2.13a11.33 11.33 0 0 1-3.02-7.73c0-6.07 4.7-11 10.67-11.48v-5.26c.92.06 1.85.08 2.8.08z" class="st0"/><path id="svg_3" d="M997 103.3v11.53c-5.97.47-10.67 5.4-10.67 11.48 0 .72.06 1.42.22 2.12a11.304 11.304 0 0 1-3.02-7.72c0-6.08 4.7-11 10.67-11.48v-6.52c.9.31 1.82.5 2.8.59z" class="st0"/><path id="svg_4" d="M997 137.78v11.56c-5.97.48-10.67 5.41-10.67 11.48 0 .73.06 1.43.22 2.13a11.386 11.386 0 0 1-3.02-7.73c0-6.07 4.7-11 10.67-11.48v-6.55c.9.31 1.82.51 2.8.59z" class="st0"/><path id="svg_5" d="M997 172.3v11.56c-5.97.47-10.67 5.4-10.67 11.47 0 .73.06 1.43.22 2.13a11.304 11.304 0 0 1-3.02-7.72c0-6.08 4.7-11.01 10.67-11.48v-6.52c.9.28 1.82.47 2.8.56z" class="st0"/><path id="svg_6" d="M997 206.81v11.53c-5.97.48-10.67 5.41-10.67 11.48 0 .73.06 1.43.22 2.13a11.33 11.33 0 0 1-3.02-7.73c0-6.07 4.7-11 10.67-11.47v-6.53c.9.31 1.82.51 2.8.59z" class="st0"/><path id="svg_7" d="M997 275.81v11.56c-5.97.48-10.67 5.41-10.67 11.48 0 .73.06 1.43.22 2.13a11.33 11.33 0 0 1-3.02-7.73c0-6.07 4.7-11 10.67-11.48v-6.52c.9.28 1.82.48 2.8.56z" class="st0"/><path id="svg_8" d="M997 310.33v11.53c-5.97.48-10.67 5.4-10.67 11.48 0 .72.06 1.42.22 2.12a11.304 11.304 0 0 1-3.02-7.72c0-6.08 4.7-11 10.67-11.48v-6.52c.9.31 1.82.5 2.8.59z" class="st0"/><path id="svg_9" d="M997 344.81v11.56c-5.97.48-10.67 5.41-10.67 11.48 0 .73.06 1.43.22 2.13a11.386 11.386 0 0 1-3.02-7.73c0-6.07 4.7-11 10.67-11.47v-6.55c.9.3 1.82.5 2.8.58z" class="st0"/><path id="svg_10" d="M997 379.33v10.47c-34.64 0-62.73 28.07-62.73 62.7H63.54c0-1.88-.08-3.75-.28-5.6h868.21c0-34.63 28.09-62.7 62.73-62.7v-5.43c.9.28 1.82.47 2.8.56z" class="st0"/><path id="svg_11" d="M997 241.3v11.56c-5.97.47-10.67 5.4-10.67 11.48 0 .72.06 1.42.22 2.12a11.36 11.36 0 0 1-3.02-7.72c0-6.08 4.7-11 10.67-11.48v-6.55c.9.31 1.82.5 2.8.59z" class="st0"/></g><g id="svg_12" fill="red"><path id="svg_13" d="M0 382.44v-10.78c5.97-.48 10.67-5.4 10.67-11.48 0-.73-.06-1.43-.22-2.13a11.33 11.33 0 0 1 3.02 7.73c0 6.07-4.7 11-10.67 11.48v5.26c-.92-.06-1.85-.08-2.8-.08z" class="st0"/><path id="svg_14" d="M0 348.7v-11.53c5.97-.47 10.67-5.4 10.67-11.48 0-.72-.06-1.42-.22-2.12 1.87 2.01 3.02 4.73 3.02 7.72 0 6.08-4.7 11-10.67 11.48v6.52c-.9-.31-1.82-.5-2.8-.59z" class="st0"/><path id="svg_15" d="M0 314.22v-11.56c5.97-.48 10.67-5.41 10.67-11.48 0-.73-.06-1.43-.22-2.13 1.87 2.02 3.02 4.76 3.02 7.73 0 6.07-4.7 11-10.67 11.48v6.55c-.9-.31-1.82-.51-2.8-.59z" class="st0"/><path id="svg_16" d="M0 279.7v-11.56c5.97-.47 10.67-5.4 10.67-11.47 0-.73-.06-1.43-.22-2.13 1.87 2.01 3.02 4.73 3.02 7.72 0 6.08-4.7 11-10.67 11.48v6.52c-.9-.28-1.82-.47-2.8-.56z" class="st0"/><path id="svg_17" d="M0 245.19v-11.53c5.97-.48 10.67-5.41 10.67-11.48 0-.73-.06-1.43-.22-2.13a11.33 11.33 0 0 1 3.02 7.73c0 6.07-4.7 11-10.67 11.47v6.53c-.9-.31-1.82-.51-2.8-.59z" class="st0"/><path id="svg_18" d="M0 176.19v-11.56c5.97-.48 10.67-5.41 10.67-11.48 0-.73-.06-1.43-.22-2.13a11.33 11.33 0 0 1 3.02 7.73c0 6.07-4.7 11-10.67 11.48v6.52c-.9-.28-1.82-.48-2.8-.56z" class="st0"/><path id="svg_19" d="M0 141.67v-11.53c5.97-.48 10.67-5.4 10.67-11.48 0-.72-.06-1.42-.22-2.12 1.87 2.01 3.02 4.73 3.02 7.72 0 6.08-4.7 11-10.67 11.48v6.52c-.9-.31-1.82-.5-2.8-.59z" class="st0"/><path id="svg_20" d="M0 107.19V95.63c5.97-.48 10.67-5.41 10.67-11.48 0-.73-.06-1.43-.22-2.13 1.87 2.02 3.02 4.76 3.02 7.73 0 6.07-4.7 11-10.67 11.47v6.55c-.9-.3-1.82-.5-2.8-.58z" class="st0"/><path id="svg_21" d="M0 72.67V62.2c34.64 0 62.73-28.07 62.73-62.7h870.73c0 1.88.08 3.75.28 5.6H65.53c0 34.62-28.09 62.7-62.73 62.7v5.43c-.9-.28-1.82-.47-2.8-.56z" class="st0"/><path id="svg_22" d="M0 210.7v-11.56c5.97-.47 10.67-5.4 10.67-11.48 0-.72-.06-1.42-.22-2.12a11.36 11.36 0 0 1 3.02 7.72c0 6.08-4.7 11-10.67 11.48v6.55c-.9-.31-1.82-.5-2.8-.59z" class="st0"/></g><path id="svg_23" fill="#B22D00" d="M997.5 65.77v10.77c-5.97.48-10.67 5.4-10.67 11.48 0 2.99 1.15 5.71 3.02 7.73 1.91 2.12 4.63 3.49 7.65 3.75v11.53c-5.97.48-10.67 5.4-10.67 11.48 0 2.99 1.15 5.71 3.02 7.72 1.91 2.13 4.63 3.5 7.65 3.75v11.56c-5.97.48-10.67 5.41-10.67 11.48 0 2.97 1.15 5.71 3.02 7.73 1.91 2.12 4.63 3.5 7.65 3.75v11.56c-5.97.47-10.67 5.4-10.67 11.48 0 2.99 1.15 5.71 3.02 7.72 1.91 2.13 4.63 3.5 7.65 3.75v11.53c-5.97.48-10.67 5.41-10.67 11.48 0 3 1.15 5.71 3.02 7.73 1.91 2.12 4.63 3.5 7.65 3.75v11.56c-5.97.48-10.67 5.4-10.67 11.48 0 2.96 1.15 5.71 3.02 7.72 1.91 2.13 4.63 3.5 7.65 3.75v11.56c-5.97.48-10.67 5.41-10.67 11.48 0 3 1.15 5.71 3.02 7.73 1.91 2.12 4.63 3.5 7.65 3.75v11.53c-5.97.48-10.67 5.4-10.67 11.48 0 2.99 1.15 5.71 3.02 7.72 1.91 2.13 4.63 3.5 7.65 3.75v11.56c-5.97.48-10.67 5.41-10.67 11.48 0 2.97 1.15 5.71 3.02 7.73 1.91 2.13 4.63 3.5 7.65 3.75V386c-34.64 0-62.73 28.07-62.73 62.7H64.04c0-8.93-1.87-17.44-5.26-25.14-9.44-21.55-30.64-36.75-55.48-37.51-.64-.05-1.32-.05-1.99-.05-.28 0-.53.03-.81.03v-10.5c.28.03.53.08.81.08 6.42 0 11.6-5.18 11.6-11.56 0-.73-.06-1.45-.2-2.15-.9-4.71-4.65-8.4-9.41-9.24-.64-.11-1.32-.17-1.99-.17-.28 0-.53.06-.81.08v-11.53c.28.03.53.09.81.09 6.42 0 11.6-5.18 11.6-11.59 0-.73-.06-1.46-.2-2.16-.9-4.7-4.65-8.4-9.41-9.24-.64-.11-1.32-.16-1.99-.16-.28 0-.53.05-.81.08v-11.53c.28.03.53.08.81.08 6.42 0 11.6-5.18 11.6-11.56 0-.76-.06-1.48-.2-2.18-.9-4.71-4.65-8.4-9.41-9.24-.64-.11-1.32-.17-1.99-.17-.28 0-.53.09-.81.09v-11.54c.28.03.53.09.81.09 6.42 0 11.6-5.18 11.6-11.56 0-.73-.06-1.46-.2-2.16-.9-4.7-4.65-8.4-9.41-9.24-.64-.11-1.32-.16-1.99-.16-.28 0-.53.05-.81.08v-11.53c.28.02.53.08.81.08 6.42 0 11.6-5.18 11.6-11.59 0-.73-.06-1.45-.2-2.15-.9-4.71-4.65-8.4-9.41-9.24-.64-.11-1.32-.17-1.99-.17-.28 0-.53.06-.81.08v-11.53c.28.03.53.09.81.09 6.42 0 11.6-5.18 11.6-11.56 0-.76-.06-1.49-.2-2.19-.9-4.7-4.65-8.4-9.41-9.24-.64-.11-1.32-.16-1.99-.16-.28 0-.53.05-.81.08V168.5c.28.03.53.08.81.08 6.42 0 11.6-5.18 11.6-11.56 0-.73-.06-1.46-.2-2.16-.9-4.7-4.65-8.39-9.41-9.23-.64-.11-1.32-.17-1.99-.17-.28 0-.53.06-.81.08v-11.53c.28.03.53.08.81.08 6.42 0 11.6-5.17 11.6-11.58 0-.73-.06-1.46-.2-2.16-.9-4.7-4.65-8.4-9.41-9.24-.64-.11-1.32-.16-1.99-.16-.28 0-.53.05-.81.08V99.5c.28.02.53.08.81.08 6.42 0 11.6-5.18 11.6-11.56 0-.76-.06-1.48-.2-2.18-.9-4.71-4.65-8.4-9.41-9.24-.64-.11-1.32-.17-1.99-.17-.28 0-.53.06-.81.08V65.74c.28 0 .53.03.81.03 34.65 0 62.73-28.08 62.73-62.71h870.73c0 1.88.08 3.75.28 5.6.78 9.07 3.5 17.58 7.78 25.14 10.76 19.09 31.2 31.97 54.67 31.97z" class="st1"/><path id="svg_24" fill="red" clip-rule="evenodd" fill-rule="evenodd" d="M834.88 44.3v.2H143.14v-.2h-8.4v.2H133v.55H85.76A104.89 104.89 0 0 1 43.4 92.99v244.49l-.02 21.28c18.81 11.22 33.61 27.97 42.38 47.95h804.28c8.93-20.35 24.07-37.3 43.33-48.51.02-5.73-.01-14.32-.03-20.57l-.02-8.08V122.52l.02-7.95.01-21.02c-19.25-11.21-34.38-28.15-43.31-48.5H861v-.55h-17.72v-.2h-8.4z" class="st2"/><g id="svg_25" fill="#FFF"><path id="svg_26" class="st3" d="M223.23 61.25 228 75.91h15.42l-12.48 9.06 4.77 14.66-12.48-9.06-12.48 9.06 4.77-14.66-12.48-9.06h15.42z"/><path id="svg_27" class="st3" d="m292.05 61.25 4.76 14.66h15.43l-12.48 9.06 4.77 14.66-12.48-9.06-12.48 9.06 4.77-14.66-12.48-9.06h15.42z"/><path id="svg_28" class="st3" d="m360.86 61.25 4.77 14.66h15.42l-12.47 9.06 4.76 14.66-12.48-9.06-12.47 9.06 4.76-14.66-12.47-9.06h15.42z"/><path id="svg_29" class="st3" d="m429.68 61.25 4.77 14.66h15.42l-12.47 9.06 4.76 14.66-12.48-9.06-12.48 9.06 4.77-14.66-12.48-9.06h15.43z"/><path id="svg_30" class="st3" d="m498.5 61.25 4.77 14.66h15.42l-12.48 9.06 4.77 14.66-12.48-9.06-12.48 9.06 4.77-14.66-12.48-9.06h15.42z"/><path id="svg_31" class="st3" d="m567.32 61.25 4.76 14.66h15.43l-12.48 9.06 4.77 14.66-12.48-9.06-12.48 9.06 4.77-14.66-12.48-9.06h15.42z"/><path id="svg_32" class="st3" d="m636.13 61.25 4.77 14.66h15.42l-12.47 9.06 4.76 14.66-12.48-9.06-12.47 9.06 4.76-14.66-12.47-9.06h15.42z"/><path id="svg_33" class="st3" d="m704.95 61.25 4.77 14.66h15.42l-12.47 9.06 4.76 14.66-12.48-9.06-12.48 9.06 4.77-14.66-12.48-9.06h15.43z"/><path id="svg_34" class="st3" d="m773.77 61.25 4.77 14.66h15.42l-12.47 9.06 4.76 14.66-12.48-9.06-12.48 9.06 4.77-14.66-12.48-9.06H769z"/></g><g id="svg_35" fill="#FFF"><path id="svg_36" class="st3" d="m223.23 352.37 4.77 14.66h15.42l-12.48 9.06 4.77 14.66-12.48-9.06-12.48 9.06 4.77-14.66-12.48-9.06h15.42z"/><path id="svg_37" class="st3" d="m292.05 352.37 4.76 14.66h15.43l-12.48 9.06 4.77 14.66-12.48-9.06-12.48 9.06 4.77-14.66-12.48-9.06h15.42z"/><path id="svg_38" class="st3" d="m360.86 352.37 4.77 14.66h15.42l-12.47 9.06 4.76 14.66-12.48-9.06-12.47 9.06 4.76-14.66-12.47-9.06h15.42z"/><path id="svg_39" class="st3" d="m429.68 352.37 4.77 14.66h15.42l-12.47 9.06 4.76 14.66-12.48-9.06-12.48 9.06 4.77-14.66-12.48-9.06h15.43z"/><path id="svg_40" class="st3" d="m498.5 352.37 4.77 14.66h15.42l-12.48 9.06 4.77 14.66-12.48-9.06-12.48 9.06 4.77-14.66-12.48-9.06h15.42z"/><path id="svg_41" class="st3" d="m567.32 352.37 4.76 14.66h15.43l-12.48 9.06 4.77 14.66-12.48-9.06-12.48 9.06 4.77-14.66-12.48-9.06h15.42z"/><path id="svg_42" class="st3" d="m636.13 352.37 4.77 14.66h15.42l-12.47 9.06 4.76 14.66-12.48-9.06-12.47 9.06 4.76-14.66-12.47-9.06h15.42z"/><path id="svg_43" class="st3" d="m704.95 352.37 4.77 14.66h15.42l-12.47 9.06 4.76 14.66-12.48-9.06-12.48 9.06 4.77-14.66-12.48-9.06h15.43z"/><path id="svg_44" class="st3" d="m773.77 352.37 4.77 14.66h15.42l-12.47 9.06 4.76 14.66-12.48-9.06-12.48 9.06 4.77-14.66-12.48-9.06H769z"/></g><g id="svg_45" fill="#FFF" clip-rule="evenodd" fill-rule="evenodd"><path id="svg_46" d="M208 142.96V322.5h20.21v-86.35h46.55c8.48 0 15.65-7.86 15.65-17.69v-57.8c0-9.84-7.17-17.7-15.65-17.7H208zm54.07 70.33h-33.86v-47.47h33.86c4.51 0 8.13 4.38 8.13 9.6v27.99c0 5.49-3.62 9.88-8.13 9.88z" class="st4"/><path id="svg_47" d="M369.2 251.22v-39.17c0-9.73-7.1-17.51-15.7-17.51h-30.28c-8.61 0-15.7 7.78-15.7 17.51v90.58c0 9.72 7.09 17.75 15.7 17.75h36.73l4.73-22.86h-28.81c-4.52 0-8.14-4.19-8.14-9.43v-19.11h25.77c8.6 0 15.7-8.03 15.7-17.76zm-20.22-24.34v9.75c0 5.27-3.61 9.49-8.14 9.49h-13.11v-19.24c0-5.27 3.62-9.48 8.14-9.48h4.97c4.53 0 8.14 4.21 8.14 9.48z" class="st4"/><path id="svg_48" d="M406.52 320.2V217.4h12.88c4.75 0 8.37 4.05 8.37 9.11h20.21v-14.46c0-9.73-7.09-17.51-15.7-17.51H386.3V320.2h20.22z" class="st4"/><path id="svg_49" d="M502.41 136.8v57.74h-25.77c-8.82 0-15.7 7.78-15.7 17.75v90.34c0 9.97 6.88 17.75 15.7 17.75h45.98V131.23l-20.21 5.57zm-21.26 151.47v-61.63c0-5.39 3.85-9.24 8.14-9.24h13.12v80.12h-13.12c-4.29 0-8.14-4.37-8.14-9.25z" class="st4"/><path id="svg_50" d="M544.29 321.29V199.7l19.8-5.59v127.18h-19.8zm-.42-161.27v-23.91l19.79-5.61v23.93l-19.79 5.59z" class="st4"/><path id="svg_51" d="M647.02 217.4v-22.86h-45.98c-8.61 0-15.7 8.02-15.7 17.75v38.93c0 9.97 7.09 17.76 15.7 17.76h17.4c4.74 0 8.36 4.19 8.36 9.42v9.69c0 5.24-3.62 9.43-8.36 9.43h-33.1v22.86h45.98c8.6 0 15.7-7.78 15.7-17.75v-38.76c0-9.73-7.1-17.75-15.7-17.75h-17.63c-4.52 0-8.14-4.22-8.14-9.49v-9.75c0-5.27 3.62-9.48 8.14-9.48h33.33z" class="st4"/><path id="svg_52" class="st4" d="M688.48 320.2V217.4h21.72l4.93-22.86h-26.65v-63.05l-20.21 5.31v183.4z"/><path id="svg_53" d="M788 251.22v-39.17c0-9.73-7.1-17.51-15.7-17.51h-30.28c-8.6 0-15.7 7.78-15.7 17.51v90.58c0 9.72 7.1 17.75 15.7 17.75h36.73l4.73-22.86h-28.81c-4.52 0-8.14-4.19-8.14-9.43v-19.11h25.77c8.6 0 15.7-8.03 15.7-17.76zm-20.21-24.34v9.75c0 5.27-3.62 9.49-8.14 9.49h-13.12v-19.24c0-5.27 3.62-9.48 8.14-9.48h4.98c4.52 0 8.14 4.21 8.14 9.48z" class="st4"/></g></g></svg>