<svg width="54" height="125" xmlns="http://www.w3.org/2000/svg" fill="none"><g id="svg_10"><path id="svg_1" fill="#FFCAB9" d="M42.67 130.748V83.606c5.324-2.153 9.11-7.649 9.11-14.092V43.887H2.535v25.627c0 6.443 3.785 11.939 9.108 14.092v47.142h31.027z"/><path id="svg_2" fill="#FABBA7" d="M30.979 46.77c-2.87.566-5.625-1.462-6.155-4.528l-5.726-33.18c-.529-3.067 1.369-6.012 4.238-6.578 2.87-.565 5.626 1.463 6.155 4.53l5.726 33.18c.53 3.066-1.368 6.011-4.238 6.577z"/><path id="svg_3" fill="#FABBA7" d="M37.109 46.289c-2.808-.852-4.438-3.974-3.641-6.974l8.619-32.458c.796-3 3.718-4.742 6.525-3.89 2.808.851 4.438 3.973 3.641 6.973l-8.619 32.458c-.796 3-3.718 4.742-6.525 3.89z"/><path id="svg_4" fill="#FABBA7" d="M7.82 49.78c-2.919 0-5.284-2.527-5.284-5.646v-5.385c0-3.119 2.365-5.647 5.284-5.647 2.918 0 5.284 2.528 5.284 5.647v5.385c0 3.119-2.366 5.647-5.284 5.647z"/><path id="svg_5" fill="#FABBA7" d="M18.388 49.78c-2.919 0-5.284-2.527-5.284-5.646V32.611c0-3.12 2.365-5.647 5.284-5.647 2.918 0 5.283 2.528 5.283 5.647v11.523c0 3.119-2.365 5.647-5.283 5.647z"/><path id="svg_6" fill="#FFCAB9" d="M51.78 69.514v-25.38c0-3.119-2.366-5.647-5.284-5.647h-17.54c-2.919 0-5.285 2.528-5.285 5.647s2.366 5.647 5.284 5.647h12.257v8.452c-4.895.97-9.738 5.904-9.738 12.835"/><path id="svg_7" fill="#000" d="M42.67 90.823c-1.399 0-2.533 2.133-2.533 4.762v33.124c.116 6.307 4.953 6.3 5.068 0V95.585c0-2.629-1.134-4.762-2.534-4.762z"/><path id="svg_8" fill="#000" d="M49.304.361c-4.076-1.236-8.511 1.447-9.655 5.757l-4.688 17.657-2.977-17.252c-.782-4.531-4.87-7.538-9.107-6.702-4.24.836-7.052 5.202-6.27 9.732l2.543 14.743c-3.87-.402-7.678 2.608-8.432 6.696C5.757 28.751-.112 32.96.002 38.75v30.764c0 6.702 3.595 12.85 9.108 15.852v45.382c0 1.496 1.134 2.71 2.534 2.71s2.534-1.214 2.534-2.71V83.606c0-1.126-.651-2.134-1.637-2.532-4.469-1.808-7.471-6.454-7.471-11.56v-17.56c2.657 1.138 6.033.39 8.034-1.668 2.852 2.916 7.715 2.915 10.567 0 1.392 1.367 3.248 2.203 5.284 2.203h9.722v3.692c-5.03 1.964-9.738 7.37-9.738 14.887 0 1.496 1.135 2.709 2.535 2.709 1.4 0 2.534-1.213 2.534-2.709 0-5.621 3.949-9.436 7.665-10.172 1.202-.237 2.073-1.357 2.073-2.663v-8.452c0-1.496-1.134-2.709-2.534-2.709H28.955c-3.637-.144-3.646-5.728 0-5.877h17.54c1.517 0 2.75 1.318 2.75 2.939v25.38c0 5.106-3.002 9.751-7.47 11.56-.986.398-1.638 1.406-1.638 2.532v14.342c0 1.496 1.134 2.708 2.534 2.708s2.534-1.212 2.534-2.708V85.365c5.513-3 9.109-9.15 9.109-15.85V44.133c0-4.063-2.728-7.455-6.329-8.201l6.706-25.253c1.177-4.433-1.24-9.062-5.387-10.319zM7.82 47.072c-1.516 0-2.75-1.318-2.75-2.938v-5.385c.138-3.894 5.362-3.89 5.5 0v5.385c0 1.62-1.234 2.938-2.75 2.938zm13.317-2.938c-.137 3.89-5.36 3.895-5.499 0V32.61c.137-3.89 5.36-3.895 5.5 0v11.523zm5.069-7.82v-3.703a8.722 8.722 0 0 0-1.246-4.516L21.591 8.571c-.275-1.593.714-3.129 2.205-3.423 1.491-.293 2.928.764 3.203 2.357l4.879 28.274h-2.923c-.967 0-1.894.19-2.75.535zm23.61-27.113L42.758 35.78h-5.717l7.484-28.183c.609-1.677 1.74-2.352 3.396-2.024 1.458.442 2.308 2.07 1.894 3.63z"/></g></svg>