<svg width="997" height="453" xmlns="http://www.w3.org/2000/svg" xml:space="preserve"><g id="Ticket"><g id="svg_1" fill="#9B9B8C"><path id="svg_2" d="M997 70.06v10.78c-5.97.48-10.67 5.4-10.67 11.48 0 .73.06 1.43.22 2.13a11.33 11.33 0 0 1-3.02-7.73c0-6.07 4.7-11 10.67-11.48v-5.26c.92.06 1.85.08 2.8.08z" class="st0"/><path id="svg_3" d="M997 103.8v11.53c-5.97.47-10.67 5.4-10.67 11.48 0 .72.06 1.42.22 2.12a11.304 11.304 0 0 1-3.02-7.72c0-6.08 4.7-11 10.67-11.48v-6.52c.9.31 1.82.5 2.8.59z" class="st0"/><path id="svg_4" d="M997 138.28v11.56c-5.97.48-10.67 5.41-10.67 11.48 0 .73.06 1.43.22 2.13a11.386 11.386 0 0 1-3.02-7.73c0-6.07 4.7-11 10.67-11.48v-6.55c.9.31 1.82.51 2.8.59z" class="st0"/><path id="svg_5" d="M997 172.8v11.56c-5.97.47-10.67 5.4-10.67 11.47 0 .73.06 1.43.22 2.13a11.304 11.304 0 0 1-3.02-7.72c0-6.08 4.7-11.01 10.67-11.48v-6.52c.9.28 1.82.47 2.8.56z" class="st0"/><path id="svg_6" d="M997 207.31v11.53c-5.97.48-10.67 5.41-10.67 11.48 0 .73.06 1.43.22 2.13a11.33 11.33 0 0 1-3.02-7.73c0-6.07 4.7-11 10.67-11.47v-6.53c.9.31 1.82.51 2.8.59z" class="st0"/><path id="svg_7" d="M997 276.31v11.56c-5.97.48-10.67 5.41-10.67 11.48 0 .73.06 1.43.22 2.13a11.33 11.33 0 0 1-3.02-7.73c0-6.07 4.7-11 10.67-11.48v-6.52c.9.28 1.82.48 2.8.56z" class="st0"/><path id="svg_8" d="M997 310.83v11.53c-5.97.48-10.67 5.4-10.67 11.48 0 .72.06 1.42.22 2.12a11.304 11.304 0 0 1-3.02-7.72c0-6.08 4.7-11 10.67-11.48v-6.52c.9.31 1.82.5 2.8.59z" class="st0"/><path id="svg_9" d="M997 345.31v11.56c-5.97.48-10.67 5.41-10.67 11.48 0 .73.06 1.43.22 2.13a11.386 11.386 0 0 1-3.02-7.73c0-6.07 4.7-11 10.67-11.47v-6.55c.9.3 1.82.5 2.8.58z" class="st0"/><path id="svg_10" d="M997 379.83v10.47c-34.64 0-62.73 28.07-62.73 62.7H63.54c0-1.88-.08-3.75-.28-5.6h868.21c0-34.63 28.09-62.7 62.73-62.7v-5.43c.9.28 1.82.47 2.8.56z" class="st0"/><path id="svg_11" d="M997 241.8v11.56c-5.97.47-10.67 5.4-10.67 11.48 0 .72.06 1.42.22 2.12a11.36 11.36 0 0 1-3.02-7.72c0-6.08 4.7-11 10.67-11.48v-6.55c.9.31 1.82.5 2.8.59z" class="st0"/></g><g id="svg_12" fill="#9B9B8C"><path id="svg_13" d="M0 382.94v-10.78c5.97-.48 10.67-5.4 10.67-11.48 0-.73-.06-1.43-.22-2.13a11.33 11.33 0 0 1 3.02 7.73c0 6.07-4.7 11-10.67 11.48v5.26c-.92-.06-1.85-.08-2.8-.08z" class="st0"/><path id="svg_14" d="M0 349.2v-11.53c5.97-.47 10.67-5.4 10.67-11.48 0-.72-.06-1.42-.22-2.12 1.87 2.01 3.02 4.73 3.02 7.72 0 6.08-4.7 11-10.67 11.48v6.52c-.9-.31-1.82-.5-2.8-.59z" class="st0"/><path id="svg_15" d="M0 314.72v-11.56c5.97-.48 10.67-5.41 10.67-11.48 0-.73-.06-1.43-.22-2.13 1.87 2.02 3.02 4.76 3.02 7.73 0 6.07-4.7 11-10.67 11.48v6.55c-.9-.31-1.82-.51-2.8-.59z" class="st0"/><path id="svg_16" d="M0 280.2v-11.56c5.97-.47 10.67-5.4 10.67-11.47 0-.73-.06-1.43-.22-2.13 1.87 2.01 3.02 4.73 3.02 7.72 0 6.08-4.7 11-10.67 11.48v6.52c-.9-.28-1.82-.47-2.8-.56z" class="st0"/><path id="svg_17" d="M0 245.69v-11.53c5.97-.48 10.67-5.41 10.67-11.48 0-.73-.06-1.43-.22-2.13a11.33 11.33 0 0 1 3.02 7.73c0 6.07-4.7 11-10.67 11.47v6.53c-.9-.31-1.82-.51-2.8-.59z" class="st0"/><path id="svg_18" d="M0 176.69v-11.56c5.97-.48 10.67-5.41 10.67-11.48 0-.73-.06-1.43-.22-2.13a11.33 11.33 0 0 1 3.02 7.73c0 6.07-4.7 11-10.67 11.48v6.52c-.9-.28-1.82-.48-2.8-.56z" class="st0"/><path id="svg_19" d="M0 142.17v-11.53c5.97-.48 10.67-5.4 10.67-11.48 0-.72-.06-1.42-.22-2.12 1.87 2.01 3.02 4.73 3.02 7.72 0 6.08-4.7 11-10.67 11.48v6.52c-.9-.31-1.82-.5-2.8-.59z" class="st0"/><path id="svg_20" d="M0 107.69V96.13c5.97-.48 10.67-5.41 10.67-11.48 0-.73-.06-1.43-.22-2.13 1.87 2.02 3.02 4.76 3.02 7.73 0 6.07-4.7 11-10.67 11.47v6.55c-.9-.3-1.82-.5-2.8-.58z" class="st0"/><path id="svg_21" d="M0 73.17V62.7c34.64 0 62.73-28.07 62.73-62.7h870.73c0 1.88.08 3.75.28 5.6H65.53c0 34.62-28.09 62.7-62.73 62.7v5.43c-.9-.28-1.82-.47-2.8-.56z" class="st0"/><path id="svg_22" d="M0 211.2v-11.56c5.97-.47 10.67-5.4 10.67-11.48 0-.72-.06-1.42-.22-2.12a11.36 11.36 0 0 1 3.02 7.72c0 6.08-4.7 11-10.67 11.48v6.55c-.9-.31-1.82-.5-2.8-.59z" class="st0"/></g><path id="svg_23" fill="#666" d="M997 67.27v10.77c-5.97.48-10.67 5.4-10.67 11.48 0 2.99 1.15 5.71 3.02 7.73 1.91 2.12 4.63 3.49 7.65 3.75v11.53c-5.97.48-10.67 5.4-10.67 11.48 0 2.99 1.15 5.71 3.02 7.72 1.91 2.13 4.63 3.5 7.65 3.75v11.56c-5.97.48-10.67 5.41-10.67 11.48 0 2.97 1.15 5.71 3.02 7.73 1.91 2.12 4.63 3.5 7.65 3.75v11.56c-5.97.47-10.67 5.4-10.67 11.48 0 2.99 1.15 5.71 3.02 7.72 1.91 2.13 4.63 3.5 7.65 3.75v11.53c-5.97.48-10.67 5.41-10.67 11.48 0 3 1.15 5.71 3.02 7.73 1.91 2.12 4.63 3.5 7.65 3.75v11.56c-5.97.48-10.67 5.4-10.67 11.48 0 2.96 1.15 5.71 3.02 7.72 1.91 2.13 4.63 3.5 7.65 3.75v11.56c-5.97.48-10.67 5.41-10.67 11.48 0 3 1.15 5.71 3.02 7.73 1.91 2.12 4.63 3.5 7.65 3.75v11.53c-5.97.48-10.67 5.4-10.67 11.48 0 2.99 1.15 5.71 3.02 7.72 1.91 2.13 4.63 3.5 7.65 3.75v11.56c-5.97.48-10.67 5.41-10.67 11.48 0 2.97 1.15 5.71 3.02 7.73 1.91 2.13 4.63 3.5 7.65 3.75v10.47c-34.64 0-62.73 28.07-62.73 62.7H63.54c0-8.93-1.87-17.44-5.26-25.14-9.44-21.55-30.64-36.75-55.48-37.51-.64-.05-1.32-.05-1.99-.05-.28 0-.53.03-.81.03v-10.5c.28.03.53.08.81.08 6.42 0 11.6-5.18 11.6-11.56 0-.73-.06-1.45-.2-2.15-.9-4.71-4.65-8.4-9.41-9.24-.64-.11-1.32-.17-1.99-.17-.28 0-.53.06-.81.08v-11.53c.28.03.53.09.81.09 6.42 0 11.6-5.18 11.6-11.59 0-.73-.06-1.46-.2-2.16-.9-4.7-4.65-8.4-9.41-9.24-.64-.11-1.32-.16-1.99-.16-.28 0-.53.05-.81.08v-11.53c.28.03.53.08.81.08 6.42 0 11.6-5.18 11.6-11.56 0-.76-.06-1.48-.2-2.18-.9-4.71-4.65-8.4-9.41-9.24-.64-.11-1.32-.17-1.99-.17-.28 0-.53.09-.81.09v-11.54c.28.03.53.09.81.09 6.42 0 11.6-5.18 11.6-11.56 0-.73-.06-1.46-.2-2.16-.9-4.7-4.65-8.4-9.41-9.24-.64-.11-1.32-.16-1.99-.16-.28 0-.53.05-.81.08v-11.53c.28.02.53.08.81.08 6.42 0 11.6-5.18 11.6-11.59 0-.73-.06-1.45-.2-2.15-.9-4.71-4.65-8.4-9.41-9.24-.64-.11-1.32-.17-1.99-.17-.28 0-.53.06-.81.08v-11.53c.28.03.53.09.81.09 6.42 0 11.6-5.18 11.6-11.56 0-.76-.06-1.49-.2-2.19-.9-4.7-4.65-8.4-9.41-9.24-.64-.11-1.32-.16-1.99-.16-.28 0-.53.05-.81.08V170c.28.03.53.08.81.08 6.42 0 11.6-5.18 11.6-11.56 0-.73-.06-1.46-.2-2.16-.9-4.7-4.65-8.39-9.41-9.23-.64-.11-1.32-.17-1.99-.17-.28 0-.53.06-.81.08v-11.53c.28.03.53.08.81.08 6.42 0 11.6-5.17 11.6-11.58 0-.73-.06-1.46-.2-2.16-.9-4.7-4.65-8.4-9.41-9.24-.64-.11-1.32-.16-1.99-.16-.28 0-.53.05-.81.08V101c.28.02.53.08.81.08 6.42 0 11.6-5.18 11.6-11.56 0-.76-.06-1.48-.2-2.18-.9-4.71-4.65-8.4-9.41-9.24-.64-.11-1.32-.17-1.99-.17-.28 0-.53.06-.81.08V67.24c.28 0 .53.03.81.03 34.65 0 62.73-28.08 62.73-62.71h870.73c0 1.88.08 3.75.28 5.6.78 9.07 3.5 17.58 7.78 25.14 10.76 19.09 31.2 31.97 54.67 31.97z" class="st1"/><path id="svg_24" fill="#AAA" clip-rule="evenodd" fill-rule="evenodd" d="M834.88 45.8v.2H143.14v-.2h-8.4v.2H133v.55H85.76A104.89 104.89 0 0 1 43.4 94.49v244.49l-.02 21.28c18.81 11.22 33.61 27.97 42.38 47.95h804.28c8.93-20.35 24.07-37.3 43.33-48.51.02-5.73-.01-14.32-.03-20.57l-.02-8.08V124.02l.02-7.95.01-21.02c-19.25-11.21-34.38-28.15-43.31-48.5H861V46h-17.72v-.2h-8.4z" class="st2"/><g id="svg_25" fill="#333"><path id="svg_26" class="st3" d="M223.23 61.75 228 76.41h15.42l-12.48 9.06 4.77 14.66-12.48-9.06-12.48 9.06 4.77-14.66-12.48-9.06h15.42z"/><path id="svg_27" class="st3" d="m292.05 61.75 4.76 14.66h15.43l-12.48 9.06 4.77 14.66-12.48-9.06-12.48 9.06 4.77-14.66-12.48-9.06h15.42z"/><path id="svg_28" class="st3" d="m360.86 61.75 4.77 14.66h15.42l-12.47 9.06 4.76 14.66-12.48-9.06-12.47 9.06 4.76-14.66-12.47-9.06h15.42z"/><path id="svg_29" class="st3" d="m429.68 61.75 4.77 14.66h15.42l-12.47 9.06 4.76 14.66-12.48-9.06-12.48 9.06 4.77-14.66-12.48-9.06h15.43z"/><path id="svg_30" class="st3" d="m498.5 61.75 4.77 14.66h15.42l-12.48 9.06 4.77 14.66-12.48-9.06-12.48 9.06 4.77-14.66-12.48-9.06h15.42z"/><path id="svg_31" class="st3" d="m567.32 61.75 4.76 14.66h15.43l-12.48 9.06 4.77 14.66-12.48-9.06-12.48 9.06 4.77-14.66-12.48-9.06h15.42z"/><path id="svg_32" class="st3" d="m636.13 61.75 4.77 14.66h15.42l-12.47 9.06 4.76 14.66-12.48-9.06-12.47 9.06 4.76-14.66-12.47-9.06h15.42z"/><path id="svg_33" class="st3" d="m704.95 61.75 4.77 14.66h15.42l-12.47 9.06 4.76 14.66-12.48-9.06-12.48 9.06 4.77-14.66-12.48-9.06h15.43z"/><path id="svg_34" class="st3" d="m773.77 61.75 4.77 14.66h15.42l-12.47 9.06 4.76 14.66-12.48-9.06-12.48 9.06 4.77-14.66-12.48-9.06H769z"/></g><g id="svg_35" fill="#333"><path id="svg_36" class="st3" d="m223.23 352.87 4.77 14.66h15.42l-12.48 9.06 4.77 14.66-12.48-9.06-12.48 9.06 4.77-14.66-12.48-9.06h15.42z"/><path id="svg_37" class="st3" d="m292.05 352.87 4.76 14.66h15.43l-12.48 9.06 4.77 14.66-12.48-9.06-12.48 9.06 4.77-14.66-12.48-9.06h15.42z"/><path id="svg_38" class="st3" d="m360.86 352.87 4.77 14.66h15.42l-12.47 9.06 4.76 14.66-12.48-9.06-12.47 9.06 4.76-14.66-12.47-9.06h15.42z"/><path id="svg_39" class="st3" d="m429.68 352.87 4.77 14.66h15.42l-12.47 9.06 4.76 14.66-12.48-9.06-12.48 9.06 4.77-14.66-12.48-9.06h15.43z"/><path id="svg_40" class="st3" d="m498.5 352.87 4.77 14.66h15.42l-12.48 9.06 4.77 14.66-12.48-9.06-12.48 9.06 4.77-14.66-12.48-9.06h15.42z"/><path id="svg_41" class="st3" d="m567.32 352.87 4.76 14.66h15.43l-12.48 9.06 4.77 14.66-12.48-9.06-12.48 9.06 4.77-14.66-12.48-9.06h15.42z"/><path id="svg_42" class="st3" d="m636.13 352.87 4.77 14.66h15.42l-12.47 9.06 4.76 14.66-12.48-9.06-12.47 9.06 4.76-14.66-12.47-9.06h15.42z"/><path id="svg_43" class="st3" d="m704.95 352.87 4.77 14.66h15.42l-12.47 9.06 4.76 14.66-12.48-9.06-12.48 9.06 4.77-14.66-12.48-9.06h15.43z"/><path id="svg_44" class="st3" d="m773.77 352.87 4.77 14.66h15.42l-12.47 9.06 4.76 14.66-12.48-9.06-12.48 9.06 4.77-14.66-12.48-9.06H769z"/></g><g id="svg_45" fill="#333" clip-rule="evenodd" fill-rule="evenodd"><path id="svg_46" class="st4" d="M299.88 157.14v-17.41H208V274.9h91.88v-17.4h-69.42v-46.82h41.06l5.22-17.4h-46.28v-36.14z"/><path id="svg_47" d="M434.24 179h-97.22v95.67h22.46V196.4h14.32c5.02 0 9.29 3.09 9.29 6.94v71.33h22.47V196.4h14.32c5.02 0 9.29 3.09 9.29 6.94v71.33h22.46v-82.15c0-7.41-7.73-13.52-17.39-13.52z" class="st4"/><path id="svg_48" d="M516.72 203.44v46.92c0 4.11-4.27 7.04-9.05 7.04H493.1v-61h14.57c4.78 0 9.05 3.33 9.05 7.04zM493.1 323v-48.19h28.88c9.08 0 17.2-5.93 17.2-13.52v-68.77c0-7.59-8.12-13.52-17.2-13.52h-51.34v139.95L493.1 323z" class="st4"/><path id="svg_49" d="M594.3 257.4c-5.02 0-9.04-3.19-9.04-7.17v-7.38c0-3.99 4.02-7.18 9.04-7.18h14.57v21.73H594.3zm19.59-78.4h-35.8l-5.02 17.4h26.51c5.27 0 9.29 3.21 9.29 7.22v7.43c0 4.01-4.02 7.22-9.29 7.22h-19.34c-9.56 0-17.44 6.11-17.44 13.52v29.5c0 7.59 7.88 13.52 17.44 13.52H631.34v-82.29c0-7.41-7.89-13.52-17.45-13.52z" class="st4"/><path id="svg_50" class="st4" d="M677.41 274.67V196.4h24.14l5.47-17.4h-29.61v-48l-22.46 4.05v139.62z"/><path id="svg_51" d="M765.54 203.62v7.43c0 4.01-4.02 7.22-9.05 7.22h-14.57v-14.65c0-4.01 4.02-7.22 9.05-7.22h5.52c5.03 0 9.05 3.21 9.05 7.22zM788 222.16v-29.83c0-7.4-7.89-13.33-17.44-13.33h-33.65c-9.56 0-17.45 5.93-17.45 13.33v68.96c0 7.41 7.89 13.52 17.45 13.52h40.82l5.25-17.41h-32.01c-5.03 0-9.05-3.19-9.05-7.17v-14.56h28.64c9.55 0 17.44-6.11 17.44-13.51z" class="st4"/></g></g></svg>