<svg width="284" height="211" xmlns="http://www.w3.org/2000/svg" xml:space="preserve"><g id="svg_19" clip-rule="evenodd" fill-rule="evenodd"><path id="svg_1" fill="#009046" d="M16.89 11.64v24.69c0 1.4-.06 1.9-1.59 1.9-.8 0-1.84-.44-2.94-.44-1.89 0-3.3 1.51-3.3 4.1 0 2.84 1.47 4.48 3.67 4.48.43 0 3.36-.63 9.86-.63 5.61 0 9.2.63 10.12.63 3.16 0 5.06-1.64 5.06-4.42 0-2.58-1.83-4.22-4.64-4.22-1.76 0-3.31.56-4.43.56-1.27 0-1.76-.44-1.76-1.58v-4.72c0-.44.35-.7 1.19-.7.43 0 1.13.13 2.04.13 6.55 0 10.58-.26 13.64-2.87 2.94-2.54 4.64-6.69 4.64-12.3C48.45 6.16 43.4.46 34.18.46c-3.09 0-7.24.9-11.95.9-5.65-.25-8.77-.9-9.32-.9-2.38 0-3.79 1.61-3.79 4.68 0 2.56 1.35 3.96 3.24 3.96 1.22 0 2.26-.38 3-.38 1.47 0 1.53.59 1.53 2.01v.91zm10.05-.23c0-2 .63-2.31 4.29-2.31 4.71 0 7.17 2.54 7.17 7.23 0 4.3-3.23 6.69-9.56 6.69-1.83 0-1.9-.77-1.9-2V11.41z" class="st0"/><path id="svg_2" fill="#009046" d="M59.92 11.16v24.69c0 1.77 0 2.43-1.65 2.43-1.16 0-2.33-.45-3.55-.45-2.2 0-3.79 1.61-3.79 4.25 0 2.91 1.47 4.39 4.34 4.39 1.04 0 5.13-.58 11.96-.58 4.48 0 7.3.65 8.52.65 2.75 0 4.4-1.68 4.4-4.65 0-2.58-1.59-4.13-3.73-4.13-1.28 0-2.57.39-3.67.39-1.4 0-1.65-.39-1.65-1.81V11.02c0-1.77 0-2.36 1.65-2.36 1.17 0 2.39.38 3.61.38 2.26 0 3.73-1.54 3.73-4.16C80.09 2 78.62.46 75.75.46c-1.04 0-5.07.58-11.9.58-4.48 0-7.29-.58-8.52-.58-2.75 0-4.4 1.61-4.4 4.55 0 2.56 1.59 4.09 3.73 4.09 1.28 0 2.57-.38 3.67-.38 1.53 0 1.59.6 1.59 2.08v.36z" class="st0"/><path id="svg_3" fill="#009046" d="M91.63 35.9c0 1.72 0 2.38-1.65 2.38-1.17 0-2.33-.45-3.55-.45-2.2 0-3.79 1.61-3.79 4.25 0 2.91 1.53 4.39 4.4 4.39.61.64 5.41.03 14.83.03 11.44 0 18.25.54 19.39.54 2.66 0 3.86-1.32 3.86-4.57 0-1.76-.17-3.32-.17-4.64 0-2.89.51-5.38.51-7.27 0-3.42-1.82-5.64-4.83-5.64-2.56 0-4.09 2.01-4.09 3.96 0 1.21.17 2.56.17 3.84 0 5.31-2.71 5.38-8.8 5.38-4.25 0-6.23-.74-6.23-3.77v-7.6c.96-.2 1.6-.34 1.92-.34 1.79 0 2.92.81 2.92 2.02 0 .88-.17 1.75-.17 2.63 0 1.61 1.04 2.75 3.01 2.75 2.37 0 3.64-1.28 3.64-3.49 0-1.15-.52-3.43-.52-6.85 0-3.78.6-6.41.6-7.99 0-2.48-1.29-3.79-3.72-3.79-1.97 0-3.01 1.24-3.01 2.89 0 .9.17 1.8.17 2.69 0 1.24-1.13 2-2.92 2-.45 0-1.09-.07-1.92-.28v-6.4c0-2.83.96-3.65 5.77-3.65h.87c5.37 0 7.99.14 7.99 5.16-.72 1.24-.9 2.41-.9 3.58 0 2 1.57 3.86 4.1 3.86 3.01 0 4.82-2.07 4.82-5.37 0-2.07-.49-4.27-.49-6.54 0-1.76.12-3.29.12-4.68 0-2.8-1.26-3.94-3.85-3.94-2.11 0-8.5.54-18.96.54-9.11 0-13.62-.67-14.17-.67-2.75 0-4.34 1.67-4.34 4.73 0 2.66 1.59 4.29 3.73 4.29 1.28 0 2.51-.41 3.61-.41 1.65 0 1.65.69 1.65 2.41V35.9z" class="st0"/><path id="svg_4" fill="#009046" d="M149.24 13.6v-1.33c0-3.58.19-3.65 3.85-3.65h.43c5.84 0 8.32 4.35 8.32 14.25 0 10.74-2.67 15.51-8.69 15.51-3.66 0-3.91-.28-3.91-3.09V13.6zm-11.18-2.32v25.66c0 1.9 0 2.48-1.65 2.48-1.17 0-2.39-.44-3.61-.44-2.2 0-3.79 1.58-3.79 4.17 0 2.83 1.65 4.47 4.28 4.47.98 0 3.61-.56 8.19-.56 6.78-.67 10.99-.26 12.79-.26 12.01 0 18.75-8.42 18.75-23.23C173.02 6.92 166.51 0 152.59 0c-3.16 0-6.53.34-10.19.34-4.77.82-7.77.19-8.99.19-2.75 0-4.4 1.64-4.4 4.6 0 2.53 1.59 4.04 3.73 4.04 1.28 0 2.57-.38 3.67-.38 1.65 0 1.65.6 1.65 2.49z" class="st0"/><path id="svg_5" fill="#009046" d="M195.67 10.52c0-1.69.74-2.01 3.82-2.01 5.03 0 7.65 1.69 7.65 6.12 0 4.26-2.96 5.87-8.79 5.87-2.61 0-2.68-.32-2.68-2.01v-7.97zm-10.05 2.11V36.73c0 1.33-.06 1.97-1.35 1.97-.79 0-1.83-.31-2.93-.31-2.26 0-3.55 1.39-3.55 3.98 0 2.97 1.35 4.42 3.98 4.42.55 0 3.54-.5 9.02-.5 5.63 0 8.57.5 9.05.5 2.67 0 4.11-1.51 4.11-4.48 0-2.47-1.3-3.73-3.22-3.73-.96 0-2.05.31-3.21.31-1.64 0-1.85-.63-1.85-2.03v-4.64c0-3.05.68-3.31 3.49-3.31 6.09 0 8 1.32 8 6.36 0 .93-.07 2.26-.07 3.88 0 5.05 2.15 7.58 6.31 7.58 1.04 0 2.02-.19 3-.19 1.65 0 3.05.32 4.28.32 3.67 0 5.5-1.58 5.5-4.74 0-3.3-1.47-4.97-3.42-4.97-1.47 0-2.51.48-3.06.48-1.22 0-1.47-.97-1.47-2.57 0-.91.06-1.96.06-3.14 0-1.05-.06-2.1-.24-3.21-.8-3.98-3-5.79-7.71-6.77 5.51.18 7.98-2.88 7.98-9.65 0-8.01-4.47-12.18-12.79-12.18-4.7 0-9.12.71-13.09.71-6.88.48-10.37-.36-10.92-.36-2.26 0-3.67 1.67-3.67 4.68 0 2.56 1.29 3.96 3.37 3.96 1.16 0 2.2-.38 3.05-.38 1.29 0 1.35.59 1.35 1.99v1.92z" class="st0"/><path id="svg_6" fill="#009046" d="M255.92 23.02h-7.12l3.56-13.25 3.56 13.25zm-12.4-18.18-8.71 28.99c-.74 2.62-1.23 4.24-2.64 4.24-1.35 0-2.45-.38-3.31-.38-1.9 0-3.5 1.51-3.5 4.01 0 2.94 1.66 4.63 4.6 4.63 1.66 0 4.3-.62 8.04-.62s6.26.43 7.55.43c3.86 0 5.77-1.56 5.77-4.69 0-2.19-1.17-3.51-3.44-3.51h-.67c-1.17 0-1.78-.54-1.78-1.56 0-.22 0-.51.12-.95l1.16-4.01c2.58-.14 4.36-.28 5.47-.28 1.84 0 3.92.14 6.25.28l.8 4.01c.12.51.12.88.12 1.02 0 .88-.55 1.49-1.77 1.49h-.68c-2.27 0-3.5 1.32-3.5 3.51 0 3.13 1.97 4.69 5.83 4.69 1.29 0 3.74-.43 7.49-.43 3.74 0 6.44.62 8.04.62 2.94 0 4.6-1.69 4.6-4.63 0-2.5-1.6-4.01-3.5-4.01-.92 0-2.02.38-3.31.38-1.41 0-1.91-1.54-2.64-4.24L261.2 4.84c-1.48-4.5-2.64-4.56-8.84-4.56-5.83 0-7.36 0-8.84 4.56z" class="st0"/><path id="svg_7" fill="#009046" d="M7.83 93.06v24.69c0 1.4-.06 1.9-1.59 1.9-.8 0-1.84-.44-2.94-.44-1.89 0-3.3 1.52-3.3 4.1 0 2.84 1.47 4.48 3.67 4.48.43 0 3.36-.63 9.86-.63 5.61 0 9.2.63 10.12.63 3.16 0 5.06-1.64 5.06-4.42 0-2.58-1.83-4.22-4.64-4.22-1.76 0-3.31.57-4.43.57-1.27 0-1.76-.44-1.76-1.59v-4.71c0-.45.35-.71 1.19-.71.43 0 1.13.13 2.04.13 6.55 0 10.58-.26 13.64-2.86 2.94-2.54 4.64-6.69 4.64-12.31 0-10.09-5.05-15.78-14.27-15.78-3.09 0-7.24.89-11.94.89-5.66-.25-8.78-.89-9.33-.89-2.38 0-3.79 1.6-3.79 4.67 0 2.56 1.35 3.97 3.24 3.97 1.23 0 2.26-.39 3-.39 1.47 0 1.53.59 1.53 2.01v.91zm10.05-.23c0-2 .63-2.3 4.29-2.3 4.71 0 7.17 2.53 7.17 7.22 0 4.31-3.23 6.69-9.56 6.69-1.83 0-1.9-.77-1.9-2V92.83z" class="st0"/><path id="svg_8" fill="#009046" d="M66.8 104.44h-7.12l3.56-13.25 3.56 13.25zM54.41 86.27l-8.72 28.98c-.73 2.63-1.22 4.24-2.63 4.24-1.35 0-2.46-.37-3.32-.37-1.9 0-3.5 1.5-3.5 4 0 2.94 1.66 4.63 4.61 4.63 1.65 0 4.29-.62 8.03-.62 3.75 0 6.26.44 7.55.44 3.87 0 5.77-1.57 5.77-4.7 0-2.19-1.17-3.5-3.44-3.5h-.67c-1.17 0-1.78-.55-1.78-1.57 0-.22 0-.51.12-.95l1.17-4.01c2.57-.14 4.35-.27 5.46-.27 1.84 0 3.93.13 6.26.27l.8 4.01c.12.52.12.88.12 1.03 0 .87-.55 1.49-1.78 1.49h-.68c-2.27 0-3.49 1.31-3.49 3.5 0 3.13 1.96 4.7 5.83 4.7 1.28 0 3.74-.44 7.48-.44s6.44.62 8.04.62c2.94 0 4.61-1.69 4.61-4.63 0-2.5-1.6-4-3.51-4-.92 0-2.02.37-3.31.37-1.41 0-1.9-1.54-2.64-4.24l-8.71-28.98c-1.47-4.51-2.64-4.57-8.84-4.57-5.83 0-7.36 0-8.83 4.57z" class="st0"/><path id="svg_9" fill="#009046" d="M97.29 93.06v24.69c0 1.4-.06 1.9-1.59 1.9-.8 0-1.83-.44-2.94-.44-1.89 0-3.3 1.52-3.3 4.1 0 2.84 1.47 4.48 3.67 4.48.43 0 3.36-.63 9.86-.63 5.62 0 9.2.63 10.12.63 3.16 0 5.06-1.64 5.06-4.42 0-2.58-1.83-4.22-4.64-4.22-1.76 0-3.31.57-4.43.57-1.27 0-1.76-.44-1.76-1.59v-4.71c0-.45.35-.71 1.2-.71.42 0 1.12.13 2.04.13 6.54 0 10.58-.26 13.63-2.86 2.94-2.54 4.65-6.69 4.65-12.31 0-10.09-5.06-15.78-14.27-15.78-3.1 0-7.25.89-11.95.89-5.66-.25-8.77-.89-9.33-.89-2.38 0-3.79 1.6-3.79 4.67 0 2.56 1.35 3.97 3.24 3.97 1.23 0 2.27-.39 3-.39 1.47 0 1.53.59 1.53 2.01v.91zm10.05-.23c0-2 .63-2.3 4.29-2.3 4.71 0 7.18 2.53 7.18 7.22 0 4.31-3.24 6.69-9.57 6.69-1.83 0-1.9-.77-1.9-2V92.83z" class="st0"/><path id="svg_10" fill="#009046" d="M140.32 117.32c0 1.73 0 2.38-1.65 2.38-1.16 0-2.32-.45-3.55-.45-2.2 0-3.79 1.61-3.79 4.26 0 2.9 1.53 4.38 4.41 4.38.61.64 5.4.03 14.82.03 11.44 0 18.25.54 19.39.54 2.67 0 3.86-1.32 3.86-4.56 0-1.77-.17-3.32-.17-4.65 0-2.89.51-5.38.51-7.26 0-3.43-1.81-5.64-4.82-5.64-2.56 0-4.09 2.01-4.09 3.96 0 1.21.17 2.55.17 3.83 0 5.31-2.71 5.38-8.8 5.38-4.25 0-6.24-.74-6.24-3.77v-7.6c.96-.2 1.6-.33 1.92-.33 1.79 0 2.93.81 2.93 2.02 0 .87-.18 1.74-.18 2.62 0 1.61 1.05 2.75 3.01 2.75 2.37 0 3.65-1.27 3.65-3.49 0-1.14-.52-3.43-.52-6.85 0-3.78.59-6.4.59-7.99 0-2.48-1.29-3.79-3.72-3.79-1.96 0-3.01 1.24-3.01 2.9 0 .89.18 1.79.18 2.68 0 1.24-1.14 2-2.93 2-.45 0-1.09-.07-1.92-.28v-6.4c0-2.82.96-3.65 5.77-3.65h.87c5.38 0 8 .14 8 5.17-.73 1.23-.91 2.4-.91 3.57 0 2 1.57 3.86 4.1 3.86 3.01 0 4.82-2.07 4.82-5.37 0-2.06-.48-4.27-.48-6.54 0-1.75.12-3.28.12-4.68 0-2.79-1.27-3.94-3.86-3.94-2.11 0-8.49.55-18.95.55-9.12 0-13.62-.68-14.18-.68-2.75 0-4.34 1.67-4.34 4.73 0 2.66 1.59 4.3 3.73 4.3 1.29 0 2.51-.42 3.61-.42 1.65 0 1.65.69 1.65 2.41v24.02z" class="st0"/><path id="svg_11" fill="#009046" d="M197.88 115.71V92.58c0-1.77.06-2.44 1.8-2.44 1.28 0 2.61.39 4.02.39 2.54 0 4.08-1.41 4.08-3.97 0-3.07-1.8-4.67-4.88-4.67-1.14 0-4.62.64-10.16.64-6.3 0-9.78-.64-10.58-.64-2.75 0-4.34 1.6-4.34 4.54 0 2.56 1.59 4.1 3.73 4.1 1.28 0 2.51-.39 3.61-.39 1.65 0 1.65.67 1.65 2.44v24.69c0 1.77 0 2.43-1.65 2.43-1.16 0-2.33-.45-3.55-.45-2.2 0-3.79 1.61-3.79 4.26 0 2.9 1.53 4.38 4.4 4.38.61 0 5.45-.58 15.29-.58 11.41 0 17.39.52 18.81.52 2.67 0 3.92-1.16 3.92-4.26 0-1.35-.17-2.9-.17-4.81 0-2.62.51-5.17.51-7.36 0-3.68-1.81-5.94-4.82-5.94-2.56 0-4.09 2.05-4.09 4.17 0 1.34.17 2.69.17 4.03 0 4.96-1.92 5.98-8.14 5.98-4.08 0-5.82-.67-5.82-3.93z" class="st0"/><path id="svg_12" fill="#91CCAF" d="M264.25 120.47c-5.52 0-8.56-5.22-8.56-14.95 0-9.81 3.11-14.96 8.56-14.96 5.46 0 8.57 5.15 8.57 14.96 0 9.73-3.24 14.95-8.57 14.95zM284 105.52c0-15.09-7.16-23.6-19.68-23.6-12.62 0-19.81 8.19-19.81 23.6 0 15.28 7.13 23.59 19.68 23.59 12.65 0 19.81-8.57 19.81-23.59z" class="st1"/><path id="svg_13" fill="#009046" d="M26.51 175.09v23.51c0 1.79 0 2.39-1.72 2.39-1.14 0-2.48-.38-3.8-.38-2.16 0-3.77 1.52-3.77 4.06 0 2.92 1.67 4.58 4.45 4.58.83 0 4.33-.64 10.4-.64s9.64.64 10.47.64c2.8 0 4.48-1.66 4.48-4.58 0-2.54-1.62-4.06-3.8-4.06-1.32 0-2.66.38-3.8.38-1.47 0-1.72-.38-1.72-1.82V175.09c0-.29-.07-.65-.07-.94 0-1.72 1.08-2.79 2.87-2.79 1.53 0 2.35 1.14 2.35 3.44 0 1.86-.38 3.58-.38 5.3 0 2.44 1.68 4.23 4.55 4.23 3.36 0 5.29-2.08 5.29-5.3 0-1.94-.56-4.23-.56-6.74 0-1.9.19-3.76.19-5.62 0-2.37-1.37-3.72-4.24-3.72-1.06 0-6.37.45-15.63.45-9.25 0-14.48-.45-15.53-.45-2.85 0-4.27 1.35-4.27 3.72 0 1.86.18 3.72.18 5.62 0 2.51-.55 4.8-.55 6.74 0 3.22 1.92 5.3 5.26 5.3 2.84 0 4.58-1.79 4.58-4.23 0-1.72-.44-3.44-.44-5.3 0-2.3.88-3.44 2.41-3.44 1.78 0 2.86 1.07 2.86 2.79 0 .29-.06.65-.06.94z" class="st0"/><path id="svg_14" fill="#009046" d="M62.75 174v24.69c0 1.77 0 2.44-1.65 2.44-1.16 0-2.32-.46-3.55-.46-2.2 0-3.79 1.62-3.79 4.26 0 2.9 1.47 4.38 4.34 4.38 1.04 0 5.13-.58 11.96-.58 4.48 0 7.3.65 8.52.65 2.75 0 4.4-1.68 4.4-4.64 0-2.58-1.59-4.14-3.73-4.14-1.28 0-2.56.4-3.67.4-1.4 0-1.65-.4-1.65-1.81V173.86c0-1.77 0-2.36 1.65-2.36 1.17 0 2.39.38 3.61.38 2.27 0 3.73-1.53 3.73-4.15 0-2.88-1.46-4.42-4.34-4.42-1.04 0-5.07.58-11.9.58-4.48 0-7.29-.58-8.52-.58-2.75 0-4.4 1.6-4.4 4.54 0 2.56 1.59 4.1 3.73 4.1 1.29 0 2.57-.39 3.67-.39 1.53 0 1.59.6 1.59 2.09v.35z" class="st0"/><path id="svg_15" fill="#009046" d="M105.89 174.03v15.62c0 1.08.12 2.01.12 3.02 0 6.26-2.86 9.71-7.48 9.71-3.28 0-5.35-2.23-5.35-5.03 0-.58.25-.87.67-.87.49 0 .73 1.87 3.04 1.87 3.1 0 4.93-2.16 4.93-5.9 0-4.67-3.22-8.06-7.54-8.06-5.67 0-10.01 4.75-10.01 12.02 0 9.03 5.59 14.59 15.42 14.59 6.08 0 11.1-2.17 14.04-5.7 3.07-3.71 3.07-7.52 3.07-12.42 0-.5.06-1.43.06-2.87v-16.12c0-1.8 0-2.39 1.59-2.39 1.16 0 2.32.38 3.49.38 2.14 0 3.6-1.53 3.6-4.15 0-2.95-1.4-4.42-4.22-4.42-.97 0-4.83.58-11.39.58-4.65 0-7.57-.58-8.9-.58-2.98 0-4.62 1.66-4.62 4.54 0 2.5 1.64 4.1 3.58 4.1 1.16 0 2.43-.39 3.77-.39 2.13 0 2.13.46 2.13 2.47z" class="st0"/><path id="svg_16" fill="#009046" d="M135.23 198.75c0 1.72 0 2.38-1.65 2.38-1.17 0-2.33-.46-3.55-.46-2.2 0-3.79 1.62-3.79 4.26 0 2.9 1.53 4.38 4.4 4.38.61.64 5.4.03 14.83.03 11.44 0 18.25.55 19.38.55 2.67 0 3.87-1.32 3.87-4.57 0-1.77-.17-3.32-.17-4.65 0-2.89.51-5.38.51-7.26 0-3.43-1.82-5.64-4.83-5.64-2.56 0-4.09 2.01-4.09 3.96 0 1.21.17 2.55.17 3.83 0 5.31-2.71 5.38-8.8 5.38-4.25 0-6.23-.74-6.23-3.76v-7.6c.96-.2 1.6-.34 1.92-.34 1.79 0 2.92.81 2.92 2.02 0 .87-.17 1.75-.17 2.62 0 1.61 1.04 2.76 3.01 2.76 2.37 0 3.64-1.28 3.64-3.5 0-1.14-.52-3.43-.52-6.84 0-3.79.6-6.41.6-8 0-2.47-1.29-3.78-3.72-3.78-1.97 0-3.01 1.24-3.01 2.89 0 .89.17 1.79.17 2.69 0 1.24-1.13 1.99-2.92 1.99-.45 0-1.09-.07-1.92-.27v-6.41c0-2.82.96-3.65 5.77-3.65h.87c5.37 0 7.99.14 7.99 5.17-.72 1.24-.9 2.41-.9 3.58 0 1.99 1.56 3.85 4.09 3.85 3.02 0 4.83-2.06 4.83-5.37 0-2.06-.49-4.26-.49-6.54 0-1.75.12-3.28.12-4.68 0-2.79-1.26-3.93-3.85-3.93-2.11 0-8.5.54-18.96.54-9.11 0-13.62-.68-14.17-.68-2.75 0-4.34 1.68-4.34 4.74 0 2.66 1.59 4.29 3.73 4.29 1.28 0 2.5-.41 3.61-.41 1.65 0 1.65.68 1.65 2.41v24.02z" class="st0"/><path id="svg_17" fill="#009046" d="M191.71 173.37c0-1.69.73-2.01 3.82-2.01 5.03 0 7.64 1.69 7.64 6.11 0 4.27-2.95 5.88-8.78 5.88-2.62 0-2.68-.32-2.68-2.01v-7.97zm-10.05 2.11v24.1c0 1.32-.06 1.97-1.35 1.97-.79 0-1.83-.32-2.93-.32-2.27 0-3.55 1.39-3.55 3.98 0 2.97 1.34 4.43 3.97 4.43.55 0 3.55-.51 9.03-.51 5.63 0 8.57.51 9.05.51 2.67 0 4.1-1.52 4.1-4.49 0-2.46-1.3-3.73-3.21-3.73-.96 0-2.05.32-3.22.32-1.64 0-1.84-.64-1.84-2.03v-4.64c0-3.05.68-3.32 3.49-3.32 6.08 0 8 1.33 8 6.37 0 .93-.07 2.25-.07 3.87 0 5.06 2.15 7.58 6.31 7.58 1.04 0 2.01-.19 2.99-.19 1.65 0 3.06.32 4.28.32 3.67 0 5.51-1.58 5.51-4.74 0-3.3-1.47-4.97-3.43-4.97-1.46 0-2.5.49-3.05.49-1.23 0-1.47-.97-1.47-2.58 0-.91.06-1.95.06-3.14 0-1.04-.06-2.09-.25-3.21-.79-3.97-2.99-5.79-7.7-6.77 5.5.18 7.98-2.88 7.98-9.64 0-8.02-4.48-12.19-12.8-12.19-4.69 0-9.12.72-13.09.72-6.87.47-10.36-.36-10.91-.36-2.26 0-3.67 1.66-3.67 4.67 0 2.56 1.28 3.97 3.36 3.97 1.17 0 2.2-.39 3.06-.39 1.29 0 1.35.6 1.35 1.99v1.93z" class="st0"/><path id="svg_18" fill="#009046" d="M251.95 185.86h-7.11l3.56-13.24 3.55 13.24zm-12.39-18.17-8.71 28.98c-.74 2.63-1.23 4.24-2.64 4.24-1.35 0-2.46-.37-3.31-.37-1.91 0-3.5 1.5-3.5 4 0 2.95 1.65 4.64 4.6 4.64 1.66 0 4.29-.63 8.04-.63 3.74 0 6.26.44 7.54.44 3.87 0 5.77-1.57 5.77-4.7 0-2.19-1.16-3.5-3.43-3.5h-.68c-1.16 0-1.78-.54-1.78-1.56 0-.22 0-.52.12-.95l1.17-4.01c2.58-.14 4.36-.28 5.46-.28 1.84 0 3.93.14 6.26.28l.8 4.01c.12.51.12.87.12 1.02 0 .87-.55 1.49-1.78 1.49h-.67c-2.27 0-3.5 1.31-3.5 3.5 0 3.13 1.96 4.7 5.83 4.7 1.29 0 3.74-.44 7.48-.44 3.75 0 6.45.63 8.04.63 2.95 0 4.61-1.69 4.61-4.64 0-2.5-1.6-4-3.5-4-.92 0-2.03.37-3.32.37-1.41 0-1.9-1.54-2.64-4.24l-8.71-28.98c-1.47-4.51-2.64-4.56-8.83-4.56-5.83 0-7.37 0-8.84 4.56z" class="st0"/></g></svg>